<?xml version="1.0" encoding="UTF-8"?> <svg xmlns="http://www.w3.org/2000/svg" width="482.353" height="84.144" viewBox="0 0 482.353 84.144"><g id="Group_1341" data-name="Group 1341" transform="translate(-301.646 -38.236)"><path id="Path_177" data-name="Path 177" d="M329.283,312.929l.084-.081Z" transform="translate(65.445 -259.749)" fill="#e7eef0"></path><g id="Group_16" data-name="Group 16" transform="translate(301.646 65.467)" opacity="0.5"><g id="Group_15" data-name="Group 15" opacity="0.75"><g id="Group_3" data-name="Group 3" transform="translate(37.497 23.286)"><g id="Group_2" data-name="Group 2" transform="translate(0 0)" opacity="0.4"><g id="Group_1" data-name="Group 1"><path id="Path_1" data-name="Path 1" d="M325.1,349.475l-1.865,3.614-.615-4.02" transform="translate(-322.621 -349.069)" fill="#fff"></path></g></g></g><path id="Path_2" data-name="Path 2" d="M299.443,345.161l.013-.044Z" transform="translate(-287.215 -326.139)" fill="#fff"></path><g id="Group_4" data-name="Group 4" transform="translate(15.207 47.234)"><path id="Path_3" data-name="Path 3" d="M302.577,371.113l.007-.078-.409.131.011,0c.142-.013.271-.033.391-.056" transform="translate(-302.175 -371.035)" fill="#fff"></path></g><g id="Group_5" data-name="Group 5" transform="translate(18.303 23.683)"><path id="Path_4" data-name="Path 4" d="M305.015,379.757c.36.065.723.117,1.088.169a2.209,2.209,0,0,1-1.088-.169" transform="translate(-305.015 -346.697)" fill="#fff"></path><path id="Path_5" data-name="Path 5" d="M332.691,359.655l.323-.354a3.394,3.394,0,0,0-.323.354" transform="translate(-302.518 -348.543)" fill="#fff"></path><path id="Path_6" data-name="Path 6" d="M335.868,350.134l.1-.7a1.942,1.942,0,0,0-.1.7" transform="translate(-302.231 -349.433)" fill="#fff"></path></g><path id="Path_7" data-name="Path 7" d="M335.847,350.205l.031-.034-.007-.1Z" transform="translate(-283.93 -325.692)" fill="#fff"></path><path id="Path_8" data-name="Path 8" d="M328.485,361.105Zm.049-.039h0l0,.005-.006.007-.013.017-.028.032-.057.061-.111.135.138-.144.049-.06.017-.028.009-.015.005-.005,0-.005Zm-.049.039h0l.049-.038h0Z" transform="translate(-284.61 -324.7)" fill="#fff"></path><g id="Group_6" data-name="Group 6" transform="translate(43.924 37.523)"><path id="Path_9" data-name="Path 9" d="M330.146,362.127c-.047.069-.136.166-.192.245a2.226,2.226,0,0,0,.192-.245" transform="translate(-328.386 -362.127)" fill="#fff"></path><path id="Path_10" data-name="Path 10" d="M328.545,362.819l-.029.143c.064-.076.079-.138.029-.143" transform="translate(-328.516 -362.065)" fill="#fff"></path></g><g id="Group_7" data-name="Group 7" transform="translate(33.393 53.959)"><path id="Path_11" data-name="Path 11" d="M319.036,377.2l-.18.247c.172-.147.217-.22.18-.247" transform="translate(-318.856 -377.203)" fill="#fff"></path></g><g id="Group_8" data-name="Group 8" transform="translate(35.62 42.091)"><path id="Path_12" data-name="Path 12" d="M321,366.352l-.06-.035c-.08.077-.027.068.06.035" transform="translate(-320.899 -366.317)" fill="#fff"></path></g><g id="Group_9" data-name="Group 9" transform="translate(58.502 29.761)"><path id="Path_13" data-name="Path 13" d="M342.127,355.008a1.365,1.365,0,0,0-.24.147c.013.065.084.04.24-.147" transform="translate(-341.887 -355.008)" fill="#fff"></path></g><path id="Path_14" data-name="Path 14" d="M338.956,359.363l.094-.062Z" transform="translate(-283.65 -324.86)" fill="#fff"></path><path id="Path_15" data-name="Path 15" d="M298.808,336.565l-.4.951.1-.055.4-.952Z" transform="translate(-287.308 -326.916)" fill="#fff"></path><g id="Group_10" data-name="Group 10" transform="translate(48.166 24.73)"><path id="Path_16" data-name="Path 16" d="M334.082,353.53c.681-.974.87-1.231,1.119-1.035.579-.988.026-1.051.193-1.719-.471,1.187-.705,1.362-1.312,2.754" transform="translate(-332.256 -350.359)" fill="#fff"></path><path id="Path_17" data-name="Path 17" d="M335.285,350.811c.051-.133.1-.26.154-.418a2.17,2.17,0,0,0-.154.418" transform="translate(-332.147 -350.393)" fill="#fff"></path><path id="Path_18" data-name="Path 18" d="M333.174,354.663a2.15,2.15,0,0,1,.466-.575c-.231-.2-.59.75-.466.575" transform="translate(-332.34 -350.062)" fill="#fff"></path><path id="Path_19" data-name="Path 19" d="M340.082,353.265c.23-.051.473-.9.675-1.2-.232.461-.911.615-.675,1.2" transform="translate(-331.719 -350.242)" fill="#fff"></path><path id="Path_20" data-name="Path 20" d="M332.407,357.842c.146-.161.511-.312.628-.043.064-.354-.112-1-.628.043" transform="translate(-332.407 -349.772)" fill="#fff"></path></g><path id="Path_21" data-name="Path 21" d="M339.043,355.288l.18-.125.239-.922Z" transform="translate(-283.642 -325.316)" fill="#fff"></path><g id="Group_11" data-name="Group 11" transform="translate(37.125 28.115)"><path id="Path_22" data-name="Path 22" d="M344.253,354.1c.111-1.185-1.513,1.312-1.03-.6-1.346,2.142.56.032-.254,1.7.568-.936,1.191-1.258,1.284-1.1" transform="translate(-320.434 -353.498)" fill="#fff"></path><path id="Path_23" data-name="Path 23" d="M342.969,355.06c-.084.137-.165.29-.246.456.106-.179.182-.327.246-.456" transform="translate(-320.434 -353.357)" fill="#fff"></path><path id="Path_24" data-name="Path 24" d="M332.8,365.524a1.99,1.99,0,0,0,.216-.342,2.648,2.648,0,0,0-.216.342" transform="translate(-321.33 -352.444)" fill="#fff"></path><path id="Path_25" data-name="Path 25" d="M322.559,364.771l.4-.522-.684.374c.23-.055.111.5.28.148" transform="translate(-322.279 -352.528)" fill="#fff"></path></g><path id="Path_26" data-name="Path 26" d="M322.157,364.663l.134-.073Z" transform="translate(-285.166 -324.382)" fill="#fff"></path><g id="Group_12" data-name="Group 12" transform="translate(6.153 10.6)"><path id="Path_27" data-name="Path 27" d="M294.122,343.832l-.251.847a4.571,4.571,0,0,0,.251-.847" transform="translate(-293.871 -336.856)" fill="#fff"></path><path id="Path_28" data-name="Path 28" d="M295.372,337.859l.241-.426a3.01,3.01,0,0,0-.241.426" transform="translate(-293.736 -337.433)" fill="#fff"></path></g><g id="Group_13" data-name="Group 13" transform="translate(0 12.071)"><path id="Path_29" data-name="Path 29" d="M288.889,339.761c-.071-.137.2-1.076-.062-.971-.165.469-.312.94-.445,1.41a.728.728,0,0,1,.507-.438" transform="translate(-288.213 -338.782)" fill="#fff"></path><path id="Path_30" data-name="Path 30" d="M288.227,340.7l.169-.619a2.19,2.19,0,0,0-.169.619" transform="translate(-288.227 -338.664)" fill="#fff"></path></g><path id="Path_31" data-name="Path 31" d="M288.847,339.682l.094-.036Z" transform="translate(-288.171 -326.633)" fill="#fff"></path><g id="Group_14" data-name="Group 14" transform="translate(17.232)"><path id="Path_32" data-name="Path 32" d="M304.033,328.246c.139.169.444-.306.6-.536a2.429,2.429,0,0,0-.6.536" transform="translate(-304.033 -327.71)" fill="#fff"></path></g></g></g><g id="Group_18" data-name="Group 18" transform="translate(302.518 38.236)"><path id="Path_51" data-name="Path 51" d="M314.933,331.363l-2.624-16.445,15.744-12.183,12.337,8.9L332.253,329.3Z" transform="translate(-286.924 -302.734)" fill="#ffbf00"></path><path id="Path_52" data-name="Path 52" d="M350.443,342.439l-17.288,2.1-2.568-16.391,15.745-12.183,12.281,8.846Z" transform="translate(-285.274 -301.54)" fill="#ee7300"></path><path id="Path_53" data-name="Path 53" d="M346.537,351.089,338.4,368.755l-17.232,2.152L318.6,354.516l15.69-12.237Z" transform="translate(-286.356 -299.166)" fill="#00afe6"></path><path id="Path_54" data-name="Path 54" d="M308.569,345.332l12.282,8.845L312.771,371.9l-17.233,2.152L292.915,357.6Z" transform="translate(-288.674 -298.89)" fill="#0070bc"></path><path id="Path_55" data-name="Path 55" d="M289.025,333.051l15.689-12.238,12.336,8.9-8.081,17.721-17.286,2.1Z" transform="translate(-289.025 -301.103)" fill="#d7cd00"></path></g><g id="Group_19" data-name="Group 19" transform="translate(323.162 71.477)"><path id="Path_56" data-name="Path 56" d="M308.529,337.058c-.082.376-.352.65-.4.487.02.822-.226.778.189.975.11.526-.279.992-.357.4,0,.492.021.98.064,1.459.051-.279.112-.556.177-.832.325.275-.274,1.331.164,1.624a14.627,14.627,0,0,1,.11-1.494l.113.093a2.385,2.385,0,0,1,.2-1.219c.051.048.155.048.112.306.2-.871.1-1.029-.059-1.16s-.347-.233-.157-1a1.391,1.391,0,0,1-.154.361" transform="translate(-307.961 -332.91)" fill="#fff"></path><path id="Path_57" data-name="Path 57" d="M309.879,336.2c-.062-.255-.12-.516-.172-.778.189-.316.387-.625.592-.93-.142-.084.134-.859-.255-.446a1.915,1.915,0,0,1-.178.464c-.27-.278.568-1.4.1-1.283-.37.831-.494.925-.486,1.543a10.987,10.987,0,0,1-.934,1.554c-.034.249.154.351.1.653a1.911,1.911,0,0,1,.054-.2l.507.147a1.687,1.687,0,0,1,.2-.73c.03.47.082.932.152,1.382.571-.219.732-1.421,1.133-1.773-.648.364-.008-.536-.812.4" transform="translate(-307.909 -333.224)" fill="#fff"></path></g><path id="Path_58" data-name="Path 58" d="M308.623,336.7l.01-.029Z" transform="translate(15.26 -261.436)" fill="#fff"></path><g id="Group_20" data-name="Group 20" transform="translate(310.564 49.485)"><path id="Path_59" data-name="Path 59" d="M307.714,359.162c-.316-.1-.45-.023-.518.023l.222.081.225.078.4.134.871.269c.576.167,1.158.321,1.744.451-.084-.157-1.038-.572-.352-.487a1.941,1.941,0,0,0-1.366-.2l.305-.13c-.862.032-1.244-.663-.678-.647l-.067-.017a13.96,13.96,0,0,1-2.557.131c.8.425.775-.035,1.768.314" transform="translate(-295.544 -308.932)" fill="#fff"></path><path id="Path_60" data-name="Path 60" d="M328.494,313.052c-.448.055-.5.112-.448.159a2.685,2.685,0,0,0,.448-.159" transform="translate(-293.552 -313.052)" fill="#fff"></path><path id="Path_61" data-name="Path 61" d="M305.438,358.81c-.282-.029-.571-.056-.857-.1a2.623,2.623,0,0,0,.857.1" transform="translate(-295.667 -308.933)" fill="#fff"></path><path id="Path_62" data-name="Path 62" d="M310.949,355.97l.005-.057-.3.095.005,0c.107-.01.2-.024.292-.04" transform="translate(-295.12 -309.185)" fill="#fff"></path><path id="Path_63" data-name="Path 63" d="M296.448,345.716l-.043-.248c.011.09.026.171.043.248" transform="translate(-296.405 -310.127)" fill="#fff"></path><path id="Path_64" data-name="Path 64" d="M318.083,354.531q-.543.262-1.113.485c.138-.164-.419-.061-.192-.258-.084.037-.494.125-.375.194l.237-.031c-.588.477-.183.633-1.254,1a1.206,1.206,0,0,0,1.309-.244c.116-.041.214-.067.311-.093.314-.24.617-.483.906-.74Z" transform="translate(-294.692 -309.309)" fill="#fff"></path></g><path id="Path_65" data-name="Path 65" d="M311.66,321.431l-.012-.037Z" transform="translate(15.533 -262.814)" fill="#fff"></path><g id="Group_21" data-name="Group 21" transform="translate(308.775 58.617)"><path id="Path_66" data-name="Path 66" d="M311.708,321.573l-.043-.145c-.014.1-.192.344.043.145" transform="translate(-293.247 -321.428)" fill="#fff"></path><path id="Path_67" data-name="Path 67" d="M305.75,358.691a.607.607,0,0,1-.383.12c.209.024.423.027.631.039-.074-.039-.162-.1-.249-.159" transform="translate(-293.808 -318.066)" fill="#fff"></path><path id="Path_68" data-name="Path 68" d="M307.13,358.371l.644.2.621.173.529-.07c-.514-.071-1.055-.177-1.795-.307" transform="translate(-293.649 -318.095)" fill="#fff"></path><path id="Path_69" data-name="Path 69" d="M296.652,348.518c-.528-2.973.6.649.517-.735a16.65,16.65,0,0,0-.573-1.568c.223,1.159.038,1.107-.185,1.056s-.461-.1-.2,1.1c-.5-.27-.736-1.707-.671-2.542.348-.962.367.793.814.954-.169-.952-.219-.775-.489-1.169-.015-1.51-.6-3.141.028-4.013a4.134,4.134,0,0,0-.4-1.67c-.445-.169-.372,1.606-.728,2,.04-.084.125-.249.185-.2-.042.319-.087.638-.123.958.178-.908.442.137.48.619.009.351.046,1.053-.081.96l-.109-.536c-.132.7.374,1.514.192,2.264-.1.047-.167-.229-.234-.268.375.806.43,1.6.855,2.8-.192-.211-.372-.425-.557-.643.616.917.931,3.137,1.272,4.791.008-.2-.047-.524.1-.366.411.867.431,1.667.034,1.336a11.233,11.233,0,0,1,1.08,2.162,5.666,5.666,0,0,0,1.611,2.243,15.206,15.206,0,0,0,6,2.342,2.829,2.829,0,0,1-.637-.251c-.216-.616-.447-.712.478-.54a2.541,2.541,0,0,0-.81-.141,1.85,1.85,0,0,1-.984-.514c.541.168.876-.092,0-.921-1.235-.883-2.323-1.664-3.339-2.548a12.566,12.566,0,0,1-2.73-3.2c.124-.1-.032-.7-.2-1.405a20.356,20.356,0,0,1-.428-2.073,5.151,5.151,0,0,1,.942,1.9c-.125-.512-.327-1.39-.432-2.042Z" transform="translate(-294.765 -319.759)" fill="#fff"></path><path id="Path_70" data-name="Path 70" d="M299.542,353.733a1.421,1.421,0,0,0-.069-.237.6.6,0,0,0,.069.237" transform="translate(-294.34 -318.534)" fill="#fff"></path></g><path id="Path_71" data-name="Path 71" d="M297.573,350.07h.035l-.1-.25Z" transform="translate(14.258 -260.249)" fill="#fff"></path><g id="Group_22" data-name="Group 22" transform="translate(310.789 76.341)"><path id="Path_72" data-name="Path 72" d="M305.447,357.846c.193.006.315.045.5.048-.106-.024-.232-.065-.357-.1-.125-.021-.2-.014-.147.055" transform="translate(-295.816 -335.872)" fill="#fff"></path><path id="Path_73" data-name="Path 73" d="M305.706,358.526l-.141.066a1.739,1.739,0,0,0,.167.113c.049-.052.052-.111-.026-.18" transform="translate(-295.804 -335.805)" fill="#fff"></path><path id="Path_74" data-name="Path 74" d="M299.045,337.952l-.02-.267a.387.387,0,0,0,.02.267" transform="translate(-296.395 -337.685)" fill="#fff"></path><path id="Path_75" data-name="Path 75" d="M296.612,344.888c.1,1.013.443.093.583,1.511l-.017-.42c.28,1,.471,2.784.825,3.983-.216-.09-.01.788-.314.726a4.428,4.428,0,0,0,1.112,1.919c.12.54.7,1.177.93,1.838.014-.336.957.575,0-.785.08.109.076.017.158.123-.263-1.042-.781-1.265-1.106-2.117-.032-.558.557.728.444.23a10.449,10.449,0,0,1-.69-2.022c-.2-.688-.37-1.229-.671-1.131a1.534,1.534,0,0,1,0-1.169,5.252,5.252,0,0,1-.511-2.755c-.013-1,.025-1.837-.4-1.835a7.278,7.278,0,0,0,.251,1.873Z" transform="translate(-296.612 -337.207)" fill="#fff"></path></g><path id="Path_76" data-name="Path 76" d="M304.141,357.05l-.152-.121Z" transform="translate(14.844 -259.607)" fill="#fff"></path><g id="Group_23" data-name="Group 23" transform="translate(317.717 67.24)"><path id="Path_77" data-name="Path 77" d="M313.644,362.679c.267.048.536.086.806.125a1.619,1.619,0,0,1-.806-.125m1.158.1c.116-.116.234-.255-.368-.278-1.182-.309-1.907.134-2.77-.074h.275a7.464,7.464,0,0,0-2.475-.4c-.257-.311.315-.184.817-.087s.932.171.358-.159a9.639,9.639,0,0,0,2.863.277c-1.152-.241-2.018-.893-1.654-1.1-1.2-.085-1.261.142-1.278.389s.007.492-1.067.312c-.477-.164-.926-.325-1.413-.515-.223.112-.461.219-.65.338-.378-.124-.229-.185-.13-.259s.183-.135-.552-.387c-.482.094-1.313-.528-1.655-.523.094-.089.161-.184-.53-.575-.079.028-.115.249-.662-.084-.051-.335.307-.144.633.019s.619.3.412-.081c-.807-.448-1.088-.5-1.236-.418s-.152.28-.371.238c.083-.022.14.065.341.209-.1.134-.68-.422-.724-.212a3.149,3.149,0,0,0,.8.424c-.571-.149.614.778,1.134,1.019.319.085.7.221,1.132.367l.667.227.652.216a24.2,24.2,0,0,0,2.544.71c-.137-.01-.408-.029-.264.087,1.074.259,1.846.439,2.669.59a15.554,15.554,0,0,0,3.014.252l.47-.544c0-.116-.461-.022-.983.025" transform="translate(-302.966 -326.648)" fill="#fff"></path><path id="Path_78" data-name="Path 78" d="M314.274,329.337l-.168.108a.579.579,0,0,0,.168-.108" transform="translate(-301.961 -329.337)" fill="#fff"></path><path id="Path_79" data-name="Path 79" d="M333.306,347.464l.242-.265a2.121,2.121,0,0,0-.242.265" transform="translate(-300.228 -327.725)" fill="#fff"></path><path id="Path_80" data-name="Path 80" d="M335.664,340.4l.078-.522a1.435,1.435,0,0,0-.078.522" transform="translate(-300.016 -328.386)" fill="#fff"></path></g><path id="Path_81" data-name="Path 81" d="M317.368,326.741l.019-.009.053-.072Z" transform="translate(16.049 -262.339)" fill="#fff"></path><g id="Group_24" data-name="Group 24" transform="translate(355.469 64.396)"><path id="Path_82" data-name="Path 82" d="M337.626,326.992a.7.7,0,0,0-.008-.263c-.043.037-.025.126.008.263" transform="translate(-337.593 -326.729)" fill="#fff"></path></g><path id="Path_83" data-name="Path 83" d="M335.65,340.447l.023-.026-.008-.07Z" transform="translate(17.699 -261.104)" fill="#fff"></path><path id="Path_84" data-name="Path 84" d="M330.184,348.538h0Zm.037-.027h0l0,0-.005.007-.011.012-.02.023-.042.047-.083.1.1-.107.036-.046.013-.021.007-.011,0,0v0Zm-.036.027h0l.035-.028h0Z" transform="translate(17.195 -260.366)" fill="#fff"></path><g id="Group_25" data-name="Group 25" transform="translate(336.836 89.002)"><path id="Path_85" data-name="Path 85" d="M331.417,349.3c-.036.05-.1.122-.143.182a1.453,1.453,0,0,0,.143-.182" transform="translate(-319.53 -349.298)" fill="#fff"></path><path id="Path_86" data-name="Path 86" d="M320.913,354.681l-.411.227a1.362,1.362,0,0,0,.411-.227" transform="translate(-320.502 -348.812)" fill="#fff"></path><path id="Path_87" data-name="Path 87" d="M330.229,349.811l-.023.107c.05-.058.06-.1.023-.107" transform="translate(-319.626 -349.252)" fill="#fff"></path></g><path id="Path_88" data-name="Path 88" d="M311.216,330.623l.017-.026-.04-.047Z" transform="translate(15.492 -261.988)" fill="#fff"></path><g id="Group_26" data-name="Group 26" transform="translate(325.783 58.381)"><path id="Path_89" data-name="Path 89" d="M311.107,331.959l-.217.394a1.9,1.9,0,0,0,.217-.394" transform="translate(-310.318 -320.241)" fill="#fff"></path><path id="Path_90" data-name="Path 90" d="M334.162,322.9c-.078-.119-.31-.3-.157-.336-.254.021-.326.27.157.336" transform="translate(-308.25 -321.089)" fill="#fff"></path><path id="Path_91" data-name="Path 91" d="M310.576,326.766a1.955,1.955,0,0,1-.094.361c.091-.21.178-.393.094-.361" transform="translate(-310.354 -320.71)" fill="#fff"></path><path id="Path_92" data-name="Path 92" d="M310.493,327.1a3.341,3.341,0,0,0-.128.314c.048-.107.093-.212.128-.314" transform="translate(-310.365 -320.68)" fill="#fff"></path><path id="Path_93" data-name="Path 93" d="M339.01,321.211a.386.386,0,0,0,.107.19c.025-.069-.023-.135-.107-.19" transform="translate(-307.78 -321.211)" fill="#fff"></path><path id="Path_94" data-name="Path 94" d="M310.667,332.641c.045.137-.7,1.908.18.572.293.256-.374.959-.482,1.379.221-.222.147.251.315.235a1.907,1.907,0,0,1,.268-.749c.231-.044.076.455-.168.772.409-.328-.013.682.444.158a15.116,15.116,0,0,0,1.258-3.458,14.272,14.272,0,0,1-1.405,2.123l-.129-.43c.685-.522.784-1.051,1.3-1.673q-.618.659-1.184,1.366c-.687.564-.45.049-.122-.547-.1.134-.2.25-.27.252" transform="translate(-310.365 -320.278)" fill="#fff"></path></g><path id="Path_95" data-name="Path 95" d="M309.08,330.043l-.025.089.052-.112Z" transform="translate(15.301 -262.036)" fill="#fff"></path><g id="Group_27" data-name="Group 27" transform="translate(339.596 101.204)"><path id="Path_96" data-name="Path 96" d="M323.169,360.49l-.134.185c.129-.11.16-.165.134-.185" transform="translate(-323.035 -360.49)" fill="#fff"></path></g><path id="Path_97" data-name="Path 97" d="M310.957,330.055h0Z" transform="translate(15.471 -262.032)" fill="#fff"></path><path id="Path_98" data-name="Path 98" d="M327.021,358.749l.008-.038Z" transform="translate(16.92 -259.446)" fill="#fff"></path><g id="Group_28" data-name="Group 28" transform="translate(341.25 92.395)"><path id="Path_99" data-name="Path 99" d="M324.626,352.434l-.046-.025c-.059.058-.017.049.046.025" transform="translate(-324.552 -352.409)" fill="#fff"></path></g><path id="Path_100" data-name="Path 100" d="M327.029,358.713l-.011-.028Z" transform="translate(16.92 -259.449)" fill="#fff"></path><g id="Group_29" data-name="Group 29" transform="translate(358.238 83.238)"><path id="Path_101" data-name="Path 101" d="M340.311,344.011a1.136,1.136,0,0,0-.176.111c.009.049.061.031.176-.111" transform="translate(-340.135 -344.011)" fill="#fff"></path></g><path id="Path_102" data-name="Path 102" d="M337.957,347.246l.07-.046Z" transform="translate(17.908 -260.485)" fill="#fff"></path><g id="Group_30" data-name="Group 30" transform="translate(343.805 61.869)"><path id="Path_103" data-name="Path 103" d="M334.155,324.411a1.759,1.759,0,0,0,.3.136.973.973,0,0,0-.3-.136" transform="translate(-326.241 -324.411)" fill="#fff"></path><path id="Path_104" data-name="Path 104" d="M327.032,358.746a.981.981,0,0,1-.136.208.8.8,0,0,0,.136-.208" transform="translate(-326.896 -321.313)" fill="#fff"></path></g><path id="Path_105" data-name="Path 105" d="M340.824,338.154l.035-.067-.04-.062Z" transform="translate(18.166 -261.313)" fill="#fff"></path><g id="Group_31" data-name="Group 31" transform="translate(324.922 56.717)"><path id="Path_106" data-name="Path 106" d="M341.574,336.353a.657.657,0,0,0,.082.165c.021-.771.348-2.147,0-2.351-.008.263-.409,1.546-.585,1.285a10.43,10.43,0,0,1-.388,1.521c.363-.8.322-.031.309.566-.225.49-.257-.161-.426.263-.083.4-.176.789-.275,1.182.113-.335.218-.671.322-1.008l.252.4,0-.114c.263-1.8.547-.028.712-1.906" transform="translate(-306.804 -318.378)" fill="#fff"></path><path id="Path_107" data-name="Path 107" d="M341.543,336.323a1.176,1.176,0,0,0,.026.306.434.434,0,0,0-.026-.306" transform="translate(-306.692 -318.184)" fill="#fff"></path><path id="Path_108" data-name="Path 108" d="M342.347,329.405c-.027-.1-.059-.2-.1-.329Z" transform="translate(-306.629 -318.838)" fill="#fff"></path><path id="Path_109" data-name="Path 109" d="M309.576,358.936c0,.111,1,.571,1.043.3-.305-.095-.612-.2-.915-.309Z" transform="translate(-309.576 -316.144)" fill="#fff"></path><path id="Path_110" data-name="Path 110" d="M327.959,320.48c.114-.005.229-.014.342-.028l.063-.047a.907.907,0,0,0-.406.075" transform="translate(-307.917 -319.621)" fill="#fff"></path><path id="Path_111" data-name="Path 111" d="M340.942,335.039a.688.688,0,0,0,.073.335.66.66,0,0,0-.073-.335" transform="translate(-306.746 -318.3)" fill="#fff"></path><path id="Path_112" data-name="Path 112" d="M327.94,319.926c-.158-.061-.394-.146-.438-.241a4.017,4.017,0,0,0-.808.307,3.065,3.065,0,0,1,1.246-.066" transform="translate(-308.031 -319.685)" fill="#fff"></path></g><g id="Group_32" data-name="Group 32" transform="translate(312.41 49.448)"><path id="Path_113" data-name="Path 113" d="M320.324,359.618l-.036.005h.034Zm18.537-7.888.579-.351c-.17.276-.343.551-.527.819.486-.126.709-.818,1-1.221.5-.336-.54,1.2-.629,1.967-.191.6-1.283,1.317-1.242,1.054.162.181-.118.565-.5.969-.2.2-.414.408-.63.609a3.585,3.585,0,0,0-.471.521c-1.279.987-1.224.138-2.27,1.144l.578-.092a12.31,12.31,0,0,1-2.639,1.9c-.332-.188.584-.3.752-.626l-.745.094c.247-.182.58-.756.745-.475-.084-.141.16-.627-.494-.011l.407-.583a.439.439,0,0,0-.176.005l.464-.383a4.774,4.774,0,0,1,1.1-.356c.082.063-.235.341-.4.519a3.318,3.318,0,0,0,1.211-.877c-.806.511-.493.08-.824-.021.4-.441,1.192-.955,1.425-1.227.7-.381,1.427-.62,1.162-.06.324-.45.824-.735,1.007-1.343-.518.956-.488-.464-1.147.732-.582-.087.617-.921,1.2-1.306-.191.3.125.2.156.342.578-.858.007-.709-.563-.281.208-.334.407-.669.594-1.011l-.081.08q.345-.478.655-.956c.373.106.581.226.311.428m2.006-4.971.306.065c1-1.715.829-3.3,1.6-5.132.18.35-.221,1.021-.059.969.454-1.134-.329-1.2.37-2.219-.373,1.654.437-.976.277.57a16.585,16.585,0,0,1,.65-3.117,11.52,11.52,0,0,0,.527-2.583c-.22.335-.244-.591-.307-.631.044-.358.225-.23.222.064.2-.707.444-.838.686-.711q0,.756-.048,1.513a12.063,12.063,0,0,0,.4-1.144h0l0,0a1.628,1.628,0,0,0-.046-.64c-.1-.261-.15-.208-.292-.212-.2-.482-.458-1.075-.821-1.783l.063.036c-.076-.515-.17-1.026-.3-1.523l.179.159q-.206-.428-.44-.83c.319-.059.076-.306.309-.314.2-.351,0-.846-.316-1.361a10.016,10.016,0,0,1-.935-1.634l.225.085a5.734,5.734,0,0,1-.978-1.2,9.623,9.623,0,0,0-1.2-1.434l.07-.025c.592.326.822.3.687-.03.225.106.529.343.742.453.264.286,1.038,1.1.829,1.353-.479-.65-.468-.554-.4-.153a4.075,4.075,0,0,1,.932,1.066c.268.374.471.669.668.534.471,1.039.062.357.2,1.158-.1.144-.29-.082-.494-.291a13.791,13.791,0,0,1,.988,3.024c.185.045.185-.483.193-.9s.037-.725.378-.21c.159.256.7.12.721,1.309-.047.021-.089-.074-.13-.185a3.16,3.16,0,0,1,0,1.194c-.324.2-.3-.675-.591-1.012a3.608,3.608,0,0,1,.294,1.132l-.132-.081c.054.391.1.786.132,1.18.27.487.015-.9.194-.979.087.252.164.507.242.764a10.911,10.911,0,0,1,.005,2.057,4.012,4.012,0,0,1-.567,1.923c-.316.966.135.593.3.879.174.661-.3,1.149-.315,1.759.262.039.077.734.384.839-.1.317-.215.632-.327.945.316.675.407-1.134.661-1.345.547-.424-.035.761.294.482.142-.77-.071-.879-.06-1.26.061-.443.212-.656.372-.612-.432,1.192.209.745-.095,1.731l-.107.01c.319.1-.251,1.474-.271,2.04-.689.954-.2-1.007-.326-1-.087.443-.189.883-.293,1.323-.036-.627-.4-.125-.371-.931-.14.808-.457.8-.514,1.6-.17-.983-.717.9-1.044.865a5.16,5.16,0,0,1,1.2-2.092,3.875,3.875,0,0,1,.495-1.425l-.278-.72c-.182.68-.269,1.656-.554,1.294-.029.325-.061.648-.1.972a5.984,5.984,0,0,1-.286-1.973,6.432,6.432,0,0,0-.692,2.363,4.168,4.168,0,0,1-.737,2.1l.046-.231a6.442,6.442,0,0,1-1.518,2.582,2.619,2.619,0,0,1-1.379.654c.174-.391.331-.772.47-1.117M332.5,321.176l.311-.172c-.179-.249-1,.016-1.815.113a1.411,1.411,0,0,1-1.076.228l.1-.2a3.911,3.911,0,0,0-1.893.166l.329-.275a2.066,2.066,0,0,1,.794-.43,1.754,1.754,0,0,1-.73.059c.506-.329,1.029-.64,1.575-.932-.882.024-.909.649-1.948.751-.01-.389-.132-.59.958-1.071,1.008-.086-.02.231.51.317.7-.572,1,.266,1.757-.326.976-.077.679.215.989.36-.95.055.447.372-.726.5.955.2.684-.438,1.5-.273l.113.406a22.568,22.568,0,0,0,3.228.52c-.753-.448.533-.136.468-.394-.23.285-1.3-.2-1.265-.351a8.377,8.377,0,0,1,1.493.253,4.708,4.708,0,0,1,1.193.439c-.382-.23-.778-.443-1.183-.637a6.58,6.58,0,0,1,1.317.055c.508.061.965.154,1,.137.426.378,1.158.742,1.276,1.08-.335-.093-.666-.172-1-.237l-.2-.388c-.22.014-.435.029-.649.053.543.345,1.567,1.195,1.619,1.593a7.3,7.3,0,0,0-2.39-1.063,8.731,8.731,0,0,0-3.456-.136.234.234,0,0,1,.164-.068,10.213,10.213,0,0,0-2.365-.072m-6.672.658c.181-.026.4-.073.626-.125a2.065,2.065,0,0,0-1.121-.256c-.814.792-1.859.609-2.957,1.028l-.5.455a2.218,2.218,0,0,1,.318.1c.952-.723,1.281-.584,1.641-.508s.757.1,1.994-.692m-3.07,41.643c.954-.148.581-.966,1.564-.76.045-.27-.2-.285-.527-.219.088-.087.133-.158.125-.216.318-.1.617-.2.893-.3.258-.065.49-.123.462,0,.088.391-.966.824-1.187,1.246-.231.21-1.546.606-1.331.254m-4.521-.27.544-.015-.163.3a.511.511,0,0,1-.381-.282m-1.771-.051.576.034-.082.01a1.808,1.808,0,0,1-.494-.044m14.828-4.927a.607.607,0,0,0,.188-.087Zm-.362.527.675-.515c-.016.2.231.239-.491.612,0-.106-.072-.122-.184-.1m-1.6-.507c.412-.178.584-.567.906-.519a15.777,15.777,0,0,1-1.808,2.681,8.629,8.629,0,0,1-2.123,1.025l.222-.166c1.869-.9,2.288-1.371,1.978-1.454a14.022,14.022,0,0,0-2.624.285,36.459,36.459,0,0,0,3.69-1.793Zm-.476-44.431a.445.445,0,0,1,.143-.146c-.156.051-.108.086-.143.146M310.74,363.074l.409-.02-.182-.061c.17-.359,1.1-.418,2.125-.2-.066-.032-.6-.162-1.361-.4l.286-.069a21.838,21.838,0,0,0,3.233.7,3.645,3.645,0,0,1-1.236-.022,4.026,4.026,0,0,0,1.877.268c.638-.011,1.195-.047,1.472.212a6.134,6.134,0,0,1-2.173.252c-.657-.036-1.321-.128-2.243-.2-.856-.542,1.2-.045,1.289-.286-.336-.075-.668-.159-1-.247.05.126-.449.085-.906.066s-.879,0-.676.315a17.9,17.9,0,0,0,6.568.776,23.443,23.443,0,0,1-2,2.762c0,.037-.04.093-.154.182,1.132.008,1.4-.281,1.44-.549s-.111-.547.15-.607c.478-.051.861-.319,1.285-.165l-.209.166c1.327-.279.375-.426,1.559-.543.9-.382-.837.074-.27-.242a1.435,1.435,0,0,0,1.026-.476,2.4,2.4,0,0,1,1.523-.469c-.06.138.33.378-.765.7.382,0,.765,0,1.15-.01a7.575,7.575,0,0,1-1.8.566c-.555.494-.364.7-.912,1.116.519-.179.364-.454,1.143-.587.955-.1-.106.219-.183.354,1.154-.684,1.49.075,2.479-.638-.335-.363-.125-.4-.965-.463.717-.336,1.744-.369,1.8.019l.041-.382c.2.023.789-.186.857-.118l.183-.256a3.469,3.469,0,0,0-1.993.412c.307-.346-.677-.4.486-.862.511-.169.129.168.191.253a9.758,9.758,0,0,1,2.609-.856,4.91,4.91,0,0,0,2.135-.819c-.408.4-1.7.81-2.587,1.457.722.025,1.232-.662,1.8-.9-.421.387-.455.543.2.381l.147-.311c.349-.174.949-.529,1.043-.464-.024-.079-.2-.044-.543.063a19.151,19.151,0,0,1,3.66-2.53c.164.447-1.877,1.515-.657,1.147.546-.442.746-1.151,1.851-1.616-.263.5.6-.086.676.052q.512-.692,1-1.388a8.8,8.8,0,0,0,1.887-1.5l-.13.138-.19.165a4.5,4.5,0,0,1-.426.305,1.979,1.979,0,0,1,.531-.661,2.45,2.45,0,0,1,.306-.228l.409-.273a5.18,5.18,0,0,0,1.547-1.337c-.116.215-.245.424-.373.639a7.143,7.143,0,0,0,1.831-2.384l.24.223c-.137-.188.079-.68.324-1.183a12.7,12.7,0,0,0,.584-1.235,6.406,6.406,0,0,1-1.5,2.027,11.548,11.548,0,0,0-1.654,1.876c.386-1.044.784-1.633,1.1-2.714.268-.293.415-.378.518-.342.062-.374-.11-.624.135-1.187l.25-.051c1.107-1.353.221-1.7,1.136-3.025.526-.086-.179,1.5-.527,2.493.761-.458-.76,1.5.2,1.029l.063-.569c.291-.44.447-.275.281.012.3-.638.289-.449.243-.781.665-1.158.73-1.041.838-.891s.238.326.94-.808c-.037.318-.409.962-.129.947q-.392.613-.81,1.206l.265.194a5.282,5.282,0,0,0,.934-3.709c-.418,1.589-.377.014-.889.692a.835.835,0,0,1,.362-.689c-.034-.147.243-.9.037-.873.433-.01,1-.809,1.48-1.506s.89-1.28,1.136-.765a9.3,9.3,0,0,0,.781-2.629c.228-1.178.378-2.521.516-3.626l.124.633c.525-1.105.435-1.665.229-2.081a3.315,3.315,0,0,1-.611-1.4c.221,1.212.392-1.042.582-1.56a27.035,27.035,0,0,1-1.022-3.478c.233-.379.767-.536.512-1.576-.159-.2-.315-.407-.485-.6-.292-1.031-1.152-2.214-1.36-2.908l.1.117c-.249-.577-.512-.8-.625-.772s-.094.289.14.7q-.392-.433-.814-.826l.056-.093a8.634,8.634,0,0,0-1.88-1.342c-.725-.422-1.5-.82-2.477-1.33.7.016-1.227-1.363.632-.444-.593-.165.125.437.141.622a9.382,9.382,0,0,0,1.582.772c-.071-.286.352-.517.874-.385-.427-.2-.87-.48-1.424-.818a18.751,18.751,0,0,0-1.739-.961c-1.194-.563-2.325-.815-2.611-.451a12.961,12.961,0,0,0-2.906-.58c-1.039-.1-2.1-.122-3.086-.163.085.037.244.107.2.17-.566-.108-1.139-.192-1.716-.253l.384-.113c-.384-.054-.768-.1-1.155-.136-.137-.121.282-.322.754-.406.265-.079.521.017.262.089,1.216-.4-1.043-.035-.268-.417.312.016.7-.085.928-.088-1.471-.111-2.037.546-2.977.228a8.042,8.042,0,0,1-3.116,1.147c.4-.346-1.279.469-.808-.094-.4.338-1.544.495-1.623.8a2.142,2.142,0,0,1,1.028-.4c-.452.273-.426.5-1.018.7-.091-.005-.07-.08-.07-.08-.666.515.051.832-1.206,1.422-1.592.892-1.565.676-1.227.2s1.061-1.15.785-1.109a6.131,6.131,0,0,1-2.167,1.326l.11-.165a2.478,2.478,0,0,1-1.133.727,6.566,6.566,0,0,1-.337,1.195q-.669.474-1.314.981l.175-.339a7.784,7.784,0,0,1-.777.69c-.257-.1.167-.346.515-.722-.345-.014-.608.194-.772.619l.171-.113c-.264.362-1.223,1.607-.231.906-.557.749-1.079.573-1.469,1.08-.183-.107.212-.534-.128-.438a4.811,4.811,0,0,0-1.1,1.058c.4-.289.032.228.671-.215-.143.28-.663.856-.569.906a1.331,1.331,0,0,1,.606-.6,10.687,10.687,0,0,1-1.786,1.772.535.535,0,0,1,.041-.246c-.486,1.036-1.574,2.27-1.654,3.106l.251-.21a1.51,1.51,0,0,1,.585-.809c-.41.7.639-.22.254.549-.556,1.013-1.481,1.641-1.429,2.416a25.563,25.563,0,0,0,1.778-2.415l-.438.546q.26-.8.576-1.6c.185.076.848-1.171,1.076-.927-.334.449-.668.832-.92,1.188.168,0,1.022-1.079,1.462-1.464l-.587.456a23.9,23.9,0,0,1,2.837-3.23c-.612.836,1.128-.637.677.084-.145.337-.716.47-.552.431.107.282.63-.451.967-.437-.02-.233.957-1.092.216-.808.408-.153.99-.934,1.588-1.078-.335-.194.782-.773.89-1a1.74,1.74,0,0,1,.637-.19c-.409.361-.891.824-1.365,1.328v0c-.256.1-.673.389-.508.366l.065.111c-.927,1.015-1.74,2.1-2.15,2.639l.131-.338c-.474.947-1.495,1.3-1.976,2.249-.015-.073.048-.171-.093-.047-.908.866-.778,1.62-1.607,2.215l-.068-.214c-.039.081-.277.638-.039.672a6.189,6.189,0,0,1,1.014-1.392,4.13,4.13,0,0,1-.677,1.307l.227.242c-.1.685-.868.886-.917,1.583l.578-.451-.041.116a1.6,1.6,0,0,0,.263-.627,1.759,1.759,0,0,1,1.462-1.078c.394-.3.2.4.389.487.45-.621.149-.833.637-1.449.207-.144.165.024.108.12l.273-.542c.089.044,1.1-.824.693-.11-.09.074-.238.231-.367.34.919-.615,2.506-1.6,2.694-1.264.5-.293.261-.339,1.06-.8.2-.459-.348-.411.391-1.14l-.738.358c-.106.14-.176.275-.3.416l.661-.519c-.362.407-.2.463-.178.758a8.04,8.04,0,0,1-2.125,1c.171-.413.752-.812.349-.891.686-.192.4-.673,1.173-.924l-.068.155c.355-.565.6-.368.9-.841,0,.075.081.068.157.061.854-.733-.4.026.384-.846.877-.493.547.269.86.254-1.156,1.237.289.418-.966,1.676.252.344.825.005,1.573-.517-.607.161,0-.739-.842-.558,1.079-.914.583-1.594,2.192-1.993l0,.074.459-.567c.3-.078.6-.153.9-.22-.337.63-1.042.726-1.318,1.159,1.165-.076,1.124-1.04,2.329-1.48,1.157.095-1.088.737-.9,1.148.182-.206.89-.263.86-.113-1.119.3-.535.5-1.789.842.5-.407-.147-.084-.125-.3a8.01,8.01,0,0,1-1.912,1.209c-.009.366.766-.159,1.305-.282.738-.791,1.948-.672,2.5-1.321.991-.435.184.249.262.261.945-.21.3-.392.558-.569,1.31-.713,1.651-.164,2.624-.391a4.006,4.006,0,0,1,1.835-.641,12.69,12.69,0,0,1,2.307-.1c-.166.148.016.262.092.4.811-.55.518-.343,1.549-.6-.271-.109-.552-.2-.84-.293.7-.021,1.337-.34,1.9.108-.359-.348-.066-.395.4-.338s1.063.248,1.338.26c.594.431,1.412.422,1.581.915l-.095-.031a9.322,9.322,0,0,1,.812.617l-.4.341a2.734,2.734,0,0,0,.958.651l.047.015.023.007-.01-.022.061,0c.074,0,.117-.033.1-.1.378.569.051.328-.051.56a6.638,6.638,0,0,1-.768-.31c-.214-.087-.449-.262-.407-.491.021.064.123.161.186.132-.628-.627-.861-.548-.986-.4s-.2.395-.579.253c.35.244.462.609.89.761a5.23,5.23,0,0,0,.556.288l.136.087.071.045.019.01.008.007,0,0h0l-.037-.035h0l.023.012.183.092c.125.057.234.121.339.161a1.067,1.067,0,0,1-.506-.426,2.05,2.05,0,0,1-.126-.179l-.053-.125a2.612,2.612,0,0,0-.161-.31.663.663,0,0,0,.366.193.358.358,0,0,1,.178.1l.095.1.024.032.011.017h0c-.066-.062-.016-.017-.03-.032h0v0l0,.005.021.059-.068,0h-.018l.034.032h-.009l-.01,0-.044-.012a2.443,2.443,0,0,1,.4.142c-.16.238.609.943-.044.687.375.386.334-.027.711.341a7.156,7.156,0,0,0-.522-.885l.256-.2c.422.159.3.385.56.733l.28-.234a7.215,7.215,0,0,1,.152.856c.166-.2.374.4.481.557.04.494-.579.395-.032,1.026l.021-.065a2.3,2.3,0,0,1,.436,1.334c-.067-.025-.148-.2-.193-.282a12.784,12.784,0,0,0,.292,1.632c.1.563.118,1.083-.148,1.312-.283-.079-.132-.485-.458-.493a1.242,1.242,0,0,0-.177-1.247,2.069,2.069,0,0,1-.445-1.312c.346-.119.159-.425-.049-.721s-.438-.577-.167-.846c.147.54.79,1.211.835,1.094-.193-.564-.5-1.284-.607-1.655-.064.409-.487.465-.8.385a2.976,2.976,0,0,1,.5,1.546c.072.664.057,1.407.081,2.073l.423-.193c.408,1.158-.413-.109-.375.8l.338.4-.039.062c.135.229.267.464.392.708-.011-.509-.332-.275-.153-.824.122-.487.328.008.577.15-.109.342-.077,1.579-.339.808.128.451.249.915.347,1.392-.159-.026-.2-.334-.277-.478,0,.33-.01.662-.023,1l-.057-.044c.1.823-.107,1.954.047,2.644.616-1.331.213.745.462.687-.177.5-.94.44-.983-.666.31-.226.147-1.014.209-1.537a4.366,4.366,0,0,0-.208,1.431c-.108-.415-.415.642-.578.589a.8.8,0,0,1-.107-1.03c.227-.986.415-.024.4-.331.475-.188.186-1.412.364-1.99.044-.059.07.145.082.245.055-.524.125-1.614-.169-1.7.056.423.092.857.119,1.3-.121.269-.216-.423-.427-.041a2.239,2.239,0,0,1-.092,1.023l-.111-.09a12.091,12.091,0,0,0-.639,2.876c.563.367.8.949,1.319,1.567a19.187,19.187,0,0,1-1.818,4.182,5.338,5.338,0,0,1,.613-2.369l-.022.486a2.485,2.485,0,0,0,.267-1.542c.044.059.1.01.218-.09.185-.746-.052-1.23-.386-.93l.031.268-.456.39c.5.384-.344,1.706-.46,2.571,0-.64-.323-1.291.275-1.848l-.313-.033c.182-.6.638-1,.459-1.422l-.167.718-.149-.065c-.153.495-.153,1.21-.506,1.59a2.809,2.809,0,0,1-.4,1.974l-.04-.062c.157.963-1.313,1.735-1.406,2.327.3.587.85-.938,1.223-1.179-.039.535-.568.834-.071.636-.35,1.122-.753.336-.927,1.325l.406-.37c0,.5-.526,1-.56,1.487.282.274.413-.582.955-1.2l.053.471c.209-.523.4-1.051.579-1.581-.2-.661-.4-.267-.237-1.317.51-.32,1.111-.385,1.344-.008-.343.328-.609,1.109-.887.93.072.572-.417,1.863-.018,1.808l-.078.165a8.064,8.064,0,0,0-2.271,1.991c-.189.219-.05.391.229.536a4.936,4.936,0,0,0-.748.566,1.427,1.427,0,0,1,.277-.837,17.254,17.254,0,0,1-1.626,1.547l.024-.224-.471.7c.263-.315.907-.808.985-.439a2.807,2.807,0,0,1-.443.529c-.157.144-.255.222-.432.361l-.251.2c-.041.038-.147.13-.216.2a2.621,2.621,0,0,0-.425.563c-.349-.473-.664-.35-.61-.811a.229.229,0,0,1,.108-.045,3.145,3.145,0,0,1,.336-.835l.032-.054,0-.008v0h0c-.062.048-.016.013-.032.023v0l.008-.013.017-.028.069-.112c.047-.074.095-.147.143-.216a2.963,2.963,0,0,1,.185-.29,14.258,14.258,0,0,0-1.322.928,10.846,10.846,0,0,1-1.3.906c-.324-.178,1.124-1.281.648-1.216l.732-.449.182-.112.093-.057.045-.029.012-.007h0c-.077.06-.022.016-.037.03h0l.007,0,.023-.015.371-.237a1.092,1.092,0,0,0-.279.415c.1-.119.2-.222.292-.315.077-.084.1-.123.158-.174.086-.083.222-.207.319-.292a1.53,1.53,0,0,0,.491-.785c.43-.216-.306.686.083.372a2.089,2.089,0,0,0-.275,1.232c.914-.655.177-.736.732-1.511.231-.108.467-.224.7-.35.245-.377-.23,0-.323-.05.285-.458.578-.488.841-.813-.137.049-.379.213-.435.081.628-.378.889-1.034,1.653-1.321-.4.192-.253-.683-.164-.974-.372.3-.739.583-1.116.845a9.589,9.589,0,0,1-1.258,1.711c-.433.49-.877.958-1.379,1.555l-.056-.2c-.143.082-.219.1-.31.155l-.373.239a4.848,4.848,0,0,0-.606.493,3.327,3.327,0,0,0-.653.914,4.39,4.39,0,0,1-1.653,2.017c-.323-.336-1,.751-1.162.314.689-.418.454-.474.144-.525-.3.387-.371.843-1.216,1.163.153-.37-.605-.132.076-.662-1.061.544-1.582.879-1.908,1.519-.739.617-.928.552-1.111.482s-.379-.158-1.146.3l.17-.264c-.329.169-.658.324-.987.471l.416.086c-.368.245-.742.48-1.125.7-.684.484.4.178.362.383l.15-.406c.53-.1,1.12-.66,1.316-.486-.795.385-.5.546-.786.8.249-.141.495-.29.739-.44l.356.122a3.785,3.785,0,0,0,1.757-1.087c-.377.053-.412.492-.786.46.2-.564,1.125-1.081,1.97-1.752.073.071.38-.078.3.069,0,.045-.161.139-.259.177.165.119-.293.535.641.11a8.138,8.138,0,0,0-.507,1.334,5.441,5.441,0,0,1-1.7.9l.009-.071c-.475.193-1.348.907-1.546.654-.255.185-1.028.578-.146.422-.43.233-.863.452-1.307.655.049-.582-1.221-.289-.051-1.128-.041.024-.493.252-1.242.554l.024-.06.076-.12c.159-.027.246-.077.3.013.348-.508-.348-.384-1.053-.256l-.1.336a4.356,4.356,0,0,0-1.85-.005,15.346,15.346,0,0,1-1.916,1.237c-.2.026-.4.042-.6.06-.263-.179-1.172-.121-.789-.444-.077-.147.223-.194.605-.107.057.04-.041.058.02.1.119-.183.166-.4-.276-.632.462.071.522.107.848-.02l-.466-.058c.7-.027,1.719-.506,1.679-.772-.181.386-.625.036-.972-.034.273-.069.826-.3.4-.326-.142.166-1.35.352-.5.514a2.354,2.354,0,0,1-1.285.116c.507-.146.191-.3.343-.536a.926.926,0,0,0-.536.568c-1.243-.454-1.589-1.194-3.035-1.285-.193,0,.871.1.681.305a1.3,1.3,0,0,1-1.149-.342c-.134-.116-.277-.239-.412-.336a1.317,1.317,0,0,0-.579-.216l.161.493a9.031,9.031,0,0,1-1.2-.258c-.024-.156-.565-.738-.011-.616a1.312,1.312,0,0,0-1.151-.265,1.293,1.293,0,0,1-1.273-.481,3.034,3.034,0,0,0,.929.853c-.592-.141-.179.1-.395.3-.145-.407-1.119-.967-.328-.725-.343-.3-.928-.988-1.19-1.064.045.142.1.274.155.411a3.688,3.688,0,0,0-1.453-1.073,1.544,1.544,0,0,0,.76.612,2.309,2.309,0,0,1,.85.674c.635,1.044-.431.008-.145.859a8.552,8.552,0,0,0,.863.347c-.094-.1-.2-.191-.287-.292.183-.112.422.1.668.274s.476.305.564.065a2.215,2.215,0,0,0,.738.717,7.96,7.96,0,0,1,.933.661c.281-.08-.064-.215-.316-.338a.769.769,0,0,0,.551,0,1.01,1.01,0,0,1,.76.267c.162.087.229.012.154-.108a.675.675,0,0,0-.185-.2.964.964,0,0,0-.157-.1,2.252,2.252,0,0,0-.254-.1l.24.085.194.057.4.107c.283.074.573.148.874.252l-.542-.477.644.168-.492-.322a10.316,10.316,0,0,1,3.188,1.074c-1.105.238-2.889-.307-3.674,0,.21.22.979-.123,1.194.388l.4-.216c.411,0,1.308.026,1.345.333a9.345,9.345,0,0,0-2.055.354c-.02.061-.128.07-.292.041l-.017,0,.012-.005c-.337-.05-.861-.238-1.187-.258-.352-.18-.043-.264.012-.312a2.284,2.284,0,0,0-.435-.227c-.082-.033-.167-.062-.247-.087l-.125-.036-.083-.02a7.752,7.752,0,0,0-.8-.108,2.465,2.465,0,0,1-1.576-.605c.119-.22-.606-.827-.282-.76a4.427,4.427,0,0,0-1.467-.756c.093-.228-.67-.908-.232-.786-.244-.088-.48-.2-.722-.313-.165-.459-.826-1.251-.651-1.534-.3-.451-.446.046-.627-.709.072.01.083-.06.131.089a2.978,2.978,0,0,0-.588-1.443,3.872,3.872,0,0,0,.12.781c-.155.049-.631-.588-.634-1.385.652.886.181-.882.519-.469a29.427,29.427,0,0,0-1.423-3.858c-.158-1.705.14-3.818-.023-5.2l-.035.175-.118-.836c.077-.464.418.058.434-.674.324.3-.145,1.254.051,2.016.5-1.2.239,1.185.625.392-.35-.269-.31-.935-.182-1.664a8.253,8.253,0,0,0,.262-2.082c.321-1,.206.535.363.038l-.152-.376c.161-.387.273-.5.426-.445a11.616,11.616,0,0,0,.725-3.128c-.288,1.111-.186-.509-.615.552a4.483,4.483,0,0,1,.542-1.693c-.186.582.843-.458.11.685.213-.009.277-.177.324-.389a1.681,1.681,0,0,1,.1-.365l.05-.119.008-.016,0-.007v0h0c-.007.014.02-.033-.019.032h0v0l.014-.028.03-.06a1.636,1.636,0,0,1,.143-.23l-.088.36c.013.061-.068.277-.068.359-.009.178-.019.349.01.335-.1-.394.522-1.221,1.017-1.827.514-.632,1-1.165.971-1.445a27.792,27.792,0,0,1,.979-2.993,27.439,27.439,0,0,0,2.086-2.352l-.012.242c.452-.415.964-1.232,1.636-1.83l.339.052a13.145,13.145,0,0,1,1.862-1.919c-.1-.135-.722.462-.548.044-.352.306-.616.606-.376.62-.338.316-.534.137-.9.318.388-.47.79-.932,1.208-1.38.123-.083.178-.1.2-.086l-.094-.316c.363-.308.523-.331.538-.186.72-.735.772-1.274,1.721-1.835a2.894,2.894,0,0,1-.981,1.254c.327-.251.656-.495.992-.73-.313.533-2,1.8-1.419,1.931.885-1.006,2.322-2.337,3.171-3.243.71-.017,1.329-.831,2.344-1.131.159.008.486-.034.371.178l-.257.128c1.258-.5,2.633-1.238,3.745-1.82.233.054.463.109.693.172,2.067-.35-.529-.47,1.58-1.02.579.237,2.673-.241,2.8.063.4-.073.583-.076.615-.306-.368,0-1.17.162-.738-.146a8.1,8.1,0,0,1,1.7-.078c-.037.061-.445.292-.222.225,1.438-.271,4.14-.247,5.572-.749-.534.027-.6.246-1.3.1.018-.164.391-.121.551-.2-.075-.305-.737.173-1.467-.061.414-.113.832-.226,1.252-.327l-.693-.305c.951-.242,1.953-.451,2.908-.642a6.919,6.919,0,0,0-2.883.171,5.884,5.884,0,0,1-2.539.188c.3-.1,0-.174-.076-.249a8.227,8.227,0,0,0-1.713.44l-.979.077c-.007-.159.334-.607,1.349-.67a19.226,19.226,0,0,0-4.809.99c-1.5.477-2.952,1.014-4.655,1.509-.167-.019.408-.258.141-.21-.415.251-1.1.655-1.025.737.015-.075.046-.229.329-.354-1.621.848-2.706.884-3.623,1.689-.159-.143.726-.567.558-.555-1.685.766-2.141,1.816-3.568,2.911.3-.6-.5.011-.986.207-.5.577-1.327,1.414-2.163,2.361a30.721,30.721,0,0,0-2.318,2.934c-.086-.455-.492.024-.932.6s-.909,1.247-1.207,1.145c-.3.4-.665,1.1-.511,1.277.068-.293.612-.737.66-.592-.394.614-1.007,1.541-.822,1.785l-.744.579a.81.81,0,0,1-.042.971c-1.075.615.4.113-.7,1.269a3.521,3.521,0,0,0-.074-1c-.455.614-.283.6-.519,1.086-.242.059-.131-.708.083-1.265l-.671.741c-.092.469-.288,1.213-.449,1.943a14.091,14.091,0,0,1-.66,2.219c-.125-.3.055-.779-.362-.49a8.729,8.729,0,0,1-.421,2.418c.007-.122-.049-.059-.044-.18-.05,1.568-.358,1.1-.649,2.477l-.093-.085.076.877c.285,1.827-.571,1.932-.853,3.016l-.036-.243a4.137,4.137,0,0,0-.212,1.775,15.283,15.283,0,0,1,.041,1.746c.189-.788.2-.274.553-.847-.093-.672-.541-.466-.374-1.6.337.159.461,1.574.754,1.851a1.3,1.3,0,0,1-.676,1.158,19.023,19.023,0,0,0,.7,4.41c.208.312.532.542.812.893a3.1,3.1,0,0,1,.611,1.664l-.149-.034c.225-.039.266.751.583.968.073-.662.532.493.527-.263a1.059,1.059,0,0,1-.087,1.424c.391.159.6.58.869,1.1a3.988,3.988,0,0,0,1.277,1.538c-.355-.008-1.487-1.233-1.219-.558a12.3,12.3,0,0,0,1.786.966c-.217-.183-.423-.375-.625-.572,1.3.7,1.343,1.248,1.972,1.868.062.215-.449-.033-.785-.3a5.15,5.15,0,0,0,1.584.819c.234.039.713.189,1.221.294a4.934,4.934,0,0,0,1.36.138l.207.1-.119.028a2.1,2.1,0,0,0,.3.055l.68.3-.161.025.287.027Z" transform="translate(-298.099 -313.018)" fill="#fff"></path><path id="Path_114" data-name="Path 114" d="M310.9,330.992c-.074.28-.469.806-.2.837-.231-.142.653-.971.2-.837" transform="translate(-296.97 -311.397)" fill="#fff"></path><path id="Path_115" data-name="Path 115" d="M310.263,331.472c.024.074.125.1-.035.354l.415-.708Z" transform="translate(-297.005 -311.385)" fill="#fff"></path><path id="Path_116" data-name="Path 116" d="M308.556,331.2a3.222,3.222,0,0,1-.51,1.4c-.7-.089.431-1.1.119-1.694-.774,1.105-.483,1.749-.927,2.733a5.774,5.774,0,0,0,.964-1.257c.316-.523.547-1.028.354-1.18" transform="translate(-297.274 -311.404)" fill="#fff"></path></g><path id="Path_117" data-name="Path 117" d="M326.671,319.976l.025-.009Z" transform="translate(16.889 -262.943)" fill="#fff"></path><path id="Path_118" data-name="Path 118" d="M308.151,330.32l-.293.707.074-.042.294-.706Z" transform="translate(15.191 -262.012)" fill="#fff"></path><g id="Group_33" data-name="Group 33" transform="translate(330.83 56.152)"><path id="Path_119" data-name="Path 119" d="M321.509,325.4c.137.155.391-.19.557-.321a1.132,1.132,0,0,0-.557.321" transform="translate(-314.407 -318.634)" fill="#fff"></path><path id="Path_120" data-name="Path 120" d="M314.995,321.568a23.487,23.487,0,0,1,3.918-2.4,20.734,20.734,0,0,0-3.918,2.4" transform="translate(-314.995 -319.167)" fill="#fff"></path><path id="Path_121" data-name="Path 121" d="M334.974,323.1a17.062,17.062,0,0,0-2.883-.306,3.516,3.516,0,0,0,1.7.353,1.8,1.8,0,0,1,1.431.542c-.074-.2-.157-.394-.247-.589" transform="translate(-313.452 -318.839)" fill="#fff"></path><path id="Path_122" data-name="Path 122" d="M333.806,324.3c0-.428.9-.064.893-.367-.68-.24-.45.169-1.018-.113.048.16.09.321.125.481" transform="translate(-313.309 -318.747)" fill="#fff"></path></g><path id="Path_123" data-name="Path 123" d="M329.485,317.644l-.095.127.493-.2Z" transform="translate(17.133 -263.159)" fill="#fff"></path><g id="Group_34" data-name="Group 34" transform="translate(354.709 64.159)"><path id="Path_124" data-name="Path 124" d="M337.026,326.551l-.129-.04c.051.152.1.305.138.461,0-.142-.007-.276-.01-.421" transform="translate(-336.897 -326.511)" fill="#fff"></path></g><path id="Path_125" data-name="Path 125" d="M336.908,326.514l-.13-.036Z" transform="translate(17.801 -262.355)" fill="#fff"></path><g id="Group_35" data-name="Group 35" transform="translate(346.037 53.724)"><path id="Path_126" data-name="Path 126" d="M330.071,317.013l-.762-.074-.366.184c.374-.046.749-.084,1.128-.11" transform="translate(-328.943 -316.939)" fill="#fff"></path><path id="Path_127" data-name="Path 127" d="M335.507,319.959q-.316-.067-.628-.118c.128.015.856.488.628.118" transform="translate(-328.407 -316.677)" fill="#fff"></path><path id="Path_128" data-name="Path 128" d="M337.892,329.247c.083.166.168.331.241.506l.029-.061c-.079-.172-.158-.34-.243-.5Z" transform="translate(-328.136 -315.834)" fill="#fff"></path><path id="Path_129" data-name="Path 129" d="M339.9,321.8c-.073-.277.2-.043.412.16s.373.371.12-.1c-.684-.629-.524-.247-.532-.061" transform="translate(-327.956 -316.526)" fill="#fff"></path><path id="Path_130" data-name="Path 130" d="M341.672,330.209a.928.928,0,0,0,.071.288c-.024-.114-.048-.209-.071-.288" transform="translate(-327.794 -315.742)" fill="#fff"></path><path id="Path_131" data-name="Path 131" d="M341.681,330.278a2.47,2.47,0,0,0-.068-.831,1.386,1.386,0,0,0,.068.831" transform="translate(-327.803 -315.81)" fill="#fff"></path><path id="Path_132" data-name="Path 132" d="M341.772,333.527l.038-.279c.125.3.111.159.013-.1.01-.3-.087-.286-.147-.324l-.106-.184.1.245c-.026.456-.036.736.106.645" transform="translate(-327.804 -315.523)" fill="#fff"></path><path id="Path_133" data-name="Path 133" d="M334.339,342.915c.507-.722.646-.914.83-.769.431-.733.021-.779.143-1.276-.348.88-.522,1.011-.972,2.044" transform="translate(-328.456 -314.78)" fill="#fff"></path><path id="Path_134" data-name="Path 134" d="M335.231,340.9c.039-.1.079-.193.116-.311a1.718,1.718,0,0,0-.116.311" transform="translate(-328.376 -314.805)" fill="#fff"></path><path id="Path_135" data-name="Path 135" d="M343.92,329.369c.144.229.286.462.42.7l-.07-.268Z" transform="translate(-327.592 -315.817)" fill="#fff"></path><path id="Path_136" data-name="Path 136" d="M333.665,343.757c.1-.13.216-.357.346-.428-.171-.149-.438.557-.346.428" transform="translate(-328.519 -314.56)" fill="#fff"></path><path id="Path_137" data-name="Path 137" d="M338.793,342.718c.171-.037.352-.666.5-.891-.172.342-.676.457-.5.891" transform="translate(-328.057 -314.693)" fill="#fff"></path><path id="Path_138" data-name="Path 138" d="M333.1,346.117c.107-.12.378-.231.464-.033.049-.263-.083-.744-.464.033" transform="translate(-328.568 -314.344)" fill="#fff"></path></g><path id="Path_139" data-name="Path 139" d="M338.023,344.221l.133-.093.178-.684Z" transform="translate(17.912 -260.824)" fill="#fff"></path><g id="Group_36" data-name="Group 36" transform="translate(342.367 82.018)"><path id="Path_140" data-name="Path 140" d="M341.89,343.34c.083-.882-1.122.972-.763-.448-1,1.59.415.023-.19,1.264.422-.694.885-.934.953-.815" transform="translate(-324.207 -342.892)" fill="#fff"></path><path id="Path_141" data-name="Path 141" d="M340.937,344.051c-.061.1-.122.215-.183.338.08-.132.135-.242.183-.338" transform="translate(-324.208 -342.787)" fill="#fff"></path><path id="Path_142" data-name="Path 142" d="M333.386,351.819a1.538,1.538,0,0,0,.16-.252,1.741,1.741,0,0,0-.16.252" transform="translate(-324.872 -342.109)" fill="#fff"></path><path id="Path_143" data-name="Path 143" d="M339.22,347.842q.173-.653.314-1.3c-.166.877-1.392,2.663-1,2.78a3.718,3.718,0,0,0,.886-1.7Z" transform="translate(-324.415 -342.563)" fill="#fff"></path><path id="Path_144" data-name="Path 144" d="M325.785,351.26l.3-.387-.508.277c.171-.039.082.372.208.11" transform="translate(-325.577 -342.172)" fill="#fff"></path></g><path id="Path_145" data-name="Path 145" d="M325.487,351.179l.1-.052Z" transform="translate(16.783 -260.131)" fill="#fff"></path><g id="Group_37" data-name="Group 37" transform="translate(352.414 89.169)"><path id="Path_146" data-name="Path 146" d="M334.822,350.275a3.149,3.149,0,0,0,.669-.824c-.15.068-.851.736-.669.824" transform="translate(-334.793 -349.451)" fill="#fff"></path></g><path id="Path_147" data-name="Path 147" d="M323.517,353.227l.621-.42-.7.416Z" transform="translate(16.596 -259.979)" fill="#fff"></path><path id="Path_148" data-name="Path 148" d="M320.53,353.878l-.135-.031-.485.319.136.035Z" transform="translate(16.279 -259.886)" fill="#fff"></path><g id="Group_38" data-name="Group 38" transform="translate(311.768 65.904)"><path id="Path_149" data-name="Path 149" d="M327.714,358.534c.556-.273.776-.831.6-.813l-1.011.61c.417.125.282-.169.911-.449Z" transform="translate(-294.823 -325.44)" fill="#fff"></path><path id="Path_150" data-name="Path 150" d="M303.817,349.044c.252.136.417,1.053.253,1.165-.124-.084-.368-.552-.387-.2.249.183.493.357.744.514.035.5-.193.412-.474.118a8.735,8.735,0,0,1-.754-1.02c.263,1.036.689,1.211,1.148,2.154a1.326,1.326,0,0,1-.028-.725c.313-.174.563.754.94,1.283-.081-.434.162-.293.435-.13l.107.059.095.051-.04-.06a.229.229,0,0,0,.1-.14c-.367-.365-.287-.871-.428-1.164-.4.575-.625-1-.908-1.4-.074-.164-.145-.331-.213-.5l-.057-.2c.051-.059.143-.019.343.242-.2-.2-.355-1.072-.522-.952a18.336,18.336,0,0,1-.338-2.058.5.5,0,0,1,.075-.191c-.045-.069-.075-.079-.106-.066a26.837,26.837,0,0,1,.883-9.53c-.172.434-.406.8-.58,1.267-.22-.818-.25.778-.56.493a1.811,1.811,0,0,1,.246-1.105c-.157-.155-.42.219-.626.12-.513,1.2.338,1.568.023,2.755-.217-.077-.365-.492-.439.327l-.023-.215c.094,1.326-.625.975-.076,1.847l-.323-.042a14.618,14.618,0,0,1,.23,2.4l-.064-.037a7.467,7.467,0,0,1,.265,1.412,7.018,7.018,0,0,0,.21,1.542c-.169-.277-.335-.561-.492-.853-.081.706.356.8.39,1.283-.066-.025-.287.131-.415-.321a16.037,16.037,0,0,0,1.059,2.166c.384.444.2-.172.311-.286" transform="translate(-297.077 -327.374)" fill="#fff"></path><path id="Path_151" data-name="Path 151" d="M304.178,350.492a1.248,1.248,0,0,0,.172.35Z" transform="translate(-296.909 -326.093)" fill="#fff"></path><path id="Path_152" data-name="Path 152" d="M304.672,335.715l-.186.629a3.421,3.421,0,0,0,.186-.629" transform="translate(-296.882 -327.426)" fill="#fff"></path><path id="Path_153" data-name="Path 153" d="M306.242,352.3c-.094-.342.33.005.456-.058a6.867,6.867,0,0,1-.735-.8c-.095.083-.276.08-.352.168a8.288,8.288,0,0,0,.631.689" transform="translate(-296.78 -326.007)" fill="#fff"></path><path id="Path_154" data-name="Path 154" d="M305.962,351.083a.594.594,0,0,1-.363-.1c.117.171.237.338.365.494.074-.065.093-.162,0-.4" transform="translate(-296.781 -326.048)" fill="#fff"></path><path id="Path_155" data-name="Path 155" d="M301.13,354.905l-.216-.275c-.132-.122-.253-.252-.381-.379.191.225.394.441.6.654" transform="translate(-297.238 -325.753)" fill="#fff"></path><path id="Path_156" data-name="Path 156" d="M299.3,350.334a2.394,2.394,0,0,0,.5,1.3c-.329-.8-.13-.472-.5-1.3" transform="translate(-297.35 -326.107)" fill="#fff"></path><path id="Path_157" data-name="Path 157" d="M297.945,352.015c-.148-.271-.294-.545-.428-.823l-.005.093c.137.248.286.49.434.73" transform="translate(-297.511 -326.029)" fill="#fff"></path><path id="Path_158" data-name="Path 158" d="M305.6,331.281l.179-.316a2.2,2.2,0,0,0-.179.316" transform="translate(-296.781 -327.855)" fill="#fff"></path><path id="Path_159" data-name="Path 159" d="M303.641,336.7c.8-1.4,0,1.076.6.725.024-.286.051-.571.083-.854l.1.1c.087-.326.176-.652.275-.965-.272.119-.334.264-.534.148.263-.627.37-.687.474-.711s.221,0,.528-.359c.084-.206.169-.409.255-.59l.1-.217.149-.277,0,.02h0l.039-.063h0v.02l0,.04-.009.081.044-.089.009-.02v-.008l-.038.063h0l0-.008.011-.033.011-.107c1-1.7,2.025-3.347,3.1-4.9.473-.936-.668.22-.48-.592-.723.966-1.947,2.355-1.627,2.7-.029-.069-.087-.2-.269-.025l-.083.8.471-.5a5.092,5.092,0,0,1-.787,1.686c-.2.306-.4.6-.582.829l-.009.01v0c.015-.027-.036.059.035-.059h0l0,0-.005.007-.016.022-.034.043-.064.081-.106.114-.122.061a4.1,4.1,0,0,0,.183-.893c.04-.246.156-.531.758-1.245-.142.008-.495.185-.321-.2-.267.474-.541.931-.816,1.384l-.178.291-.1.176-.06.11c-.063.115-.173.335-.254.511a8.495,8.495,0,0,0-.726,2.693" transform="translate(-296.958 -328.112)" fill="#fff"></path></g><path id="Path_160" data-name="Path 160" d="M314.588,321.306l-.009-.04Z" transform="translate(15.799 -262.825)" fill="#fff"></path><g id="Group_39" data-name="Group 39" transform="translate(328.221 58.481)"><path id="Path_161" data-name="Path 161" d="M314.094,321.612c-.171.312-.334.628-.492.941.382-.32.769-.633,1.167-.932l-.093-.317c-.064.143-.395.578-.629.607Z" transform="translate(-312.512 -321.303)" fill="#fff"></path><path id="Path_162" data-name="Path 162" d="M313.014,323.4c.495-.6.237-.859-.2-.7.445-.6.542.056.68-.559-.18-.2-.771.5-.892.672Z" transform="translate(-312.602 -321.231)" fill="#fff"></path></g><path id="Path_163" data-name="Path 163" d="M309.218,327.1l.024-.274-.384.418Z" transform="translate(15.281 -262.323)" fill="#fff"></path><g id="Group_40" data-name="Group 40" transform="translate(324.525 62.515)"><path id="Path_164" data-name="Path 164" d="M309.211,326.865l.385-.408a.637.637,0,0,0-.337-.06Z" transform="translate(-309.211 -324.878)" fill="#fff"></path><path id="Path_165" data-name="Path 165" d="M310.506,325.554c.174-.155.362-.33.583-.551Z" transform="translate(-309.094 -325.003)" fill="#fff"></path></g><path id="Path_166" data-name="Path 166" d="M310.06,325.92l.048.015.438-.427Z" transform="translate(15.391 -262.442)" fill="#fff"></path><g id="Group_41" data-name="Group 41" transform="translate(308.85 63.492)"><path id="Path_167" data-name="Path 167" d="M309.564,326.5c.256.1.523.181.987-.461l-.4-.141Z" transform="translate(-293.504 -325.9)" fill="#fff"></path><path id="Path_168" data-name="Path 168" d="M296.867,346.188c-.076-.252-.152-.5-.219-.759l-.033.085.221.76Z" transform="translate(-294.673 -324.138)" fill="#fff"></path><path id="Path_169" data-name="Path 169" d="M296.918,342.108a4.786,4.786,0,0,0-.123-.463,1.071,1.071,0,0,0,.123.463" transform="translate(-294.657 -324.479)" fill="#fff"></path><path id="Path_170" data-name="Path 170" d="M295.568,339.093c.373-.882.177,1.3.508-.373.256-.113.448.706.254,1.481-.216-.085-.062-.787-.34-.324.2.554.015.736.366.584a6.452,6.452,0,0,0,.565,1.611c-.118-1.072.449-3.211.273-4.591-.266-.8-.894-.468-1.473-.575-.176.086-.545,2.064-.153,2.186" transform="translate(-294.783 -324.907)" fill="#fff"></path><path id="Path_171" data-name="Path 171" d="M294.88,340.2a2.485,2.485,0,0,0-.02.839c.207-.058,0-.487.02-.839" transform="translate(-294.834 -324.609)" fill="#fff"></path><path id="Path_172" data-name="Path 172" d="M300.788,332.692c-.053-.1.146-.8-.048-.721-.12.349-.231.7-.329,1.047a.542.542,0,0,1,.377-.326" transform="translate(-294.33 -325.353)" fill="#fff"></path><path id="Path_173" data-name="Path 173" d="M300.3,333.391l.126-.46a1.659,1.659,0,0,0-.126.46" transform="translate(-294.341 -325.266)" fill="#fff"></path></g><path id="Path_174" data-name="Path 174" d="M300.757,332.634l.069-.028Z" transform="translate(14.551 -261.802)" fill="#fff"></path><g id="Group_42" data-name="Group 42" transform="translate(327.6 54.211)"><path id="Path_175" data-name="Path 175" d="M312.031,324.145c.1.125.328-.228.447-.4a1.786,1.786,0,0,0-.447.4" transform="translate(-312.031 -316.813)" fill="#fff"></path><path id="Path_176" data-name="Path 176" d="M324.036,317.39l.385.069a.7.7,0,0,0-.385-.069" transform="translate(-310.948 -317.387)" fill="#fff"></path></g><g id="Group_98" data-name="Group 98" transform="translate(312.41 49.448)"><path id="Path_113-2" data-name="Path 113" d="M320.324,359.618l-.036.005h.034Zm18.537-7.888.579-.351c-.17.276-.343.551-.527.819.486-.126.709-.818,1-1.221.5-.336-.54,1.2-.629,1.967-.191.6-1.283,1.317-1.242,1.054.162.181-.118.565-.5.969-.2.2-.414.408-.63.609a3.585,3.585,0,0,0-.471.521c-1.279.987-1.224.138-2.27,1.144l.578-.092a12.31,12.31,0,0,1-2.639,1.9c-.332-.188.584-.3.752-.626l-.745.094c.247-.182.58-.756.745-.475-.084-.141.16-.627-.494-.011l.407-.583a.439.439,0,0,0-.176.005l.464-.383a4.774,4.774,0,0,1,1.1-.356c.082.063-.235.341-.4.519a3.318,3.318,0,0,0,1.211-.877c-.806.511-.493.08-.824-.021.4-.441,1.192-.955,1.425-1.227.7-.381,1.427-.62,1.162-.06.324-.45.824-.735,1.007-1.343-.518.956-.488-.464-1.147.732-.582-.087.617-.921,1.2-1.306-.191.3.125.2.156.342.578-.858.007-.709-.563-.281.208-.334.407-.669.594-1.011l-.081.08q.345-.478.655-.956c.373.106.581.226.311.428m2.006-4.971.306.065c1-1.715.829-3.3,1.6-5.132.18.35-.221,1.021-.059.969.454-1.134-.329-1.2.37-2.219-.373,1.654.437-.976.277.57a16.585,16.585,0,0,1,.65-3.117,11.52,11.52,0,0,0,.527-2.583c-.22.335-.244-.591-.307-.631.044-.358.225-.23.222.064.2-.707.444-.838.686-.711q0,.756-.048,1.513a12.063,12.063,0,0,0,.4-1.144h0l0,0a1.628,1.628,0,0,0-.046-.64c-.1-.261-.15-.208-.292-.212-.2-.482-.458-1.075-.821-1.783l.063.036c-.076-.515-.17-1.026-.3-1.523l.179.159q-.206-.428-.44-.83c.319-.059.076-.306.309-.314.2-.351,0-.846-.316-1.361a10.016,10.016,0,0,1-.935-1.634l.225.085a5.734,5.734,0,0,1-.978-1.2,9.623,9.623,0,0,0-1.2-1.434l.07-.025c.592.326.822.3.687-.03.225.106.529.343.742.453.264.286,1.038,1.1.829,1.353-.479-.65-.468-.554-.4-.153a4.075,4.075,0,0,1,.932,1.066c.268.374.471.669.668.534.471,1.039.062.357.2,1.158-.1.144-.29-.082-.494-.291a13.791,13.791,0,0,1,.988,3.024c.185.045.185-.483.193-.9s.037-.725.378-.21c.159.256.7.12.721,1.309-.047.021-.089-.074-.13-.185a3.16,3.16,0,0,1,0,1.194c-.324.2-.3-.675-.591-1.012a3.608,3.608,0,0,1,.294,1.132l-.132-.081c.054.391.1.786.132,1.18.27.487.015-.9.194-.979.087.252.164.507.242.764a10.911,10.911,0,0,1,.005,2.057,4.012,4.012,0,0,1-.567,1.923c-.316.966.135.593.3.879.174.661-.3,1.149-.315,1.759.262.039.077.734.384.839-.1.317-.215.632-.327.945.316.675.407-1.134.661-1.345.547-.424-.035.761.294.482.142-.77-.071-.879-.06-1.26.061-.443.212-.656.372-.612-.432,1.192.209.745-.095,1.731l-.107.01c.319.1-.251,1.474-.271,2.04-.689.954-.2-1.007-.326-1-.087.443-.189.883-.293,1.323-.036-.627-.4-.125-.371-.931-.14.808-.457.8-.514,1.6-.17-.983-.717.9-1.044.865a5.16,5.16,0,0,1,1.2-2.092,3.875,3.875,0,0,1,.495-1.425l-.278-.72c-.182.68-.269,1.656-.554,1.294-.029.325-.061.648-.1.972a5.984,5.984,0,0,1-.286-1.973,6.432,6.432,0,0,0-.692,2.363,4.168,4.168,0,0,1-.737,2.1l.046-.231a6.442,6.442,0,0,1-1.518,2.582,2.619,2.619,0,0,1-1.379.654c.174-.391.331-.772.47-1.117M332.5,321.176l.311-.172c-.179-.249-1,.016-1.815.113a1.411,1.411,0,0,1-1.076.228l.1-.2a3.911,3.911,0,0,0-1.893.166l.329-.275a2.066,2.066,0,0,1,.794-.43,1.754,1.754,0,0,1-.73.059c.506-.329,1.029-.64,1.575-.932-.882.024-.909.649-1.948.751-.01-.389-.132-.59.958-1.071,1.008-.086-.02.231.51.317.7-.572,1,.266,1.757-.326.976-.077.679.215.989.36-.95.055.447.372-.726.5.955.2.684-.438,1.5-.273l.113.406a22.568,22.568,0,0,0,3.228.52c-.753-.448.533-.136.468-.394-.23.285-1.3-.2-1.265-.351a8.377,8.377,0,0,1,1.493.253,4.708,4.708,0,0,1,1.193.439c-.382-.23-.778-.443-1.183-.637a6.58,6.58,0,0,1,1.317.055c.508.061.965.154,1,.137.426.378,1.158.742,1.276,1.08-.335-.093-.666-.172-1-.237l-.2-.388c-.22.014-.435.029-.649.053.543.345,1.567,1.195,1.619,1.593a7.3,7.3,0,0,0-2.39-1.063,8.731,8.731,0,0,0-3.456-.136.234.234,0,0,1,.164-.068,10.213,10.213,0,0,0-2.365-.072m-6.672.658c.181-.026.4-.073.626-.125a2.065,2.065,0,0,0-1.121-.256c-.814.792-1.859.609-2.957,1.028l-.5.455a2.218,2.218,0,0,1,.318.1c.952-.723,1.281-.584,1.641-.508s.757.1,1.994-.692m-3.07,41.643c.954-.148.581-.966,1.564-.76.045-.27-.2-.285-.527-.219.088-.087.133-.158.125-.216.318-.1.617-.2.893-.3.258-.065.49-.123.462,0,.088.391-.966.824-1.187,1.246-.231.21-1.546.606-1.331.254m-4.521-.27.544-.015-.163.3a.511.511,0,0,1-.381-.282m-1.771-.051.576.034-.082.01a1.808,1.808,0,0,1-.494-.044m14.828-4.927a.607.607,0,0,0,.188-.087Zm-.362.527.675-.515c-.016.2.231.239-.491.612,0-.106-.072-.122-.184-.1m-1.6-.507c.412-.178.584-.567.906-.519a15.777,15.777,0,0,1-1.808,2.681,8.629,8.629,0,0,1-2.123,1.025l.222-.166c1.869-.9,2.288-1.371,1.978-1.454a14.022,14.022,0,0,0-2.624.285,36.459,36.459,0,0,0,3.69-1.793Zm-.476-44.431a.445.445,0,0,1,.143-.146c-.156.051-.108.086-.143.146M310.74,363.074l.409-.02-.182-.061c.17-.359,1.1-.418,2.125-.2-.066-.032-.6-.162-1.361-.4l.286-.069a21.838,21.838,0,0,0,3.233.7,3.645,3.645,0,0,1-1.236-.022,4.026,4.026,0,0,0,1.877.268c.638-.011,1.195-.047,1.472.212a6.134,6.134,0,0,1-2.173.252c-.657-.036-1.321-.128-2.243-.2-.856-.542,1.2-.045,1.289-.286-.336-.075-.668-.159-1-.247.05.126-.449.085-.906.066s-.879,0-.676.315a17.9,17.9,0,0,0,6.568.776,23.443,23.443,0,0,1-2,2.762c0,.037-.04.093-.154.182,1.132.008,1.4-.281,1.44-.549s-.111-.547.15-.607c.478-.051.861-.319,1.285-.165l-.209.166c1.327-.279.375-.426,1.559-.543.9-.382-.837.074-.27-.242a1.435,1.435,0,0,0,1.026-.476,2.4,2.4,0,0,1,1.523-.469c-.06.138.33.378-.765.7.382,0,.765,0,1.15-.01a7.575,7.575,0,0,1-1.8.566c-.555.494-.364.7-.912,1.116.519-.179.364-.454,1.143-.587.955-.1-.106.219-.183.354,1.154-.684,1.49.075,2.479-.638-.335-.363-.125-.4-.965-.463.717-.336,1.744-.369,1.8.019l.041-.382c.2.023.789-.186.857-.118l.183-.256a3.469,3.469,0,0,0-1.993.412c.307-.346-.677-.4.486-.862.511-.169.129.168.191.253a9.758,9.758,0,0,1,2.609-.856,4.91,4.91,0,0,0,2.135-.819c-.408.4-1.7.81-2.587,1.457.722.025,1.232-.662,1.8-.9-.421.387-.455.543.2.381l.147-.311c.349-.174.949-.529,1.043-.464-.024-.079-.2-.044-.543.063a19.151,19.151,0,0,1,3.66-2.53c.164.447-1.877,1.515-.657,1.147.546-.442.746-1.151,1.851-1.616-.263.5.6-.086.676.052q.512-.692,1-1.388a8.8,8.8,0,0,0,1.887-1.5l-.13.138-.19.165a4.5,4.5,0,0,1-.426.305,1.979,1.979,0,0,1,.531-.661,2.45,2.45,0,0,1,.306-.228l.409-.273a5.18,5.18,0,0,0,1.547-1.337c-.116.215-.245.424-.373.639a7.143,7.143,0,0,0,1.831-2.384l.24.223c-.137-.188.079-.68.324-1.183a12.7,12.7,0,0,0,.584-1.235,6.406,6.406,0,0,1-1.5,2.027,11.548,11.548,0,0,0-1.654,1.876c.386-1.044.784-1.633,1.1-2.714.268-.293.415-.378.518-.342.062-.374-.11-.624.135-1.187l.25-.051c1.107-1.353.221-1.7,1.136-3.025.526-.086-.179,1.5-.527,2.493.761-.458-.76,1.5.2,1.029l.063-.569c.291-.44.447-.275.281.012.3-.638.289-.449.243-.781.665-1.158.73-1.041.838-.891s.238.326.94-.808c-.037.318-.409.962-.129.947q-.392.613-.81,1.206l.265.194a5.282,5.282,0,0,0,.934-3.709c-.418,1.589-.377.014-.889.692a.835.835,0,0,1,.362-.689c-.034-.147.243-.9.037-.873.433-.01,1-.809,1.48-1.506s.89-1.28,1.136-.765a9.3,9.3,0,0,0,.781-2.629c.228-1.178.378-2.521.516-3.626l.124.633c.525-1.105.435-1.665.229-2.081a3.315,3.315,0,0,1-.611-1.4c.221,1.212.392-1.042.582-1.56a27.035,27.035,0,0,1-1.022-3.478c.233-.379.767-.536.512-1.576-.159-.2-.315-.407-.485-.6-.292-1.031-1.152-2.214-1.36-2.908l.1.117c-.249-.577-.512-.8-.625-.772s-.094.289.14.7q-.392-.433-.814-.826l.056-.093a8.634,8.634,0,0,0-1.88-1.342c-.725-.422-1.5-.82-2.477-1.33.7.016-1.227-1.363.632-.444-.593-.165.125.437.141.622a9.382,9.382,0,0,0,1.582.772c-.071-.286.352-.517.874-.385-.427-.2-.87-.48-1.424-.818a18.751,18.751,0,0,0-1.739-.961c-1.194-.563-2.325-.815-2.611-.451a12.961,12.961,0,0,0-2.906-.58c-1.039-.1-2.1-.122-3.086-.163.085.037.244.107.2.17-.566-.108-1.139-.192-1.716-.253l.384-.113c-.384-.054-.768-.1-1.155-.136-.137-.121.282-.322.754-.406.265-.079.521.017.262.089,1.216-.4-1.043-.035-.268-.417.312.016.7-.085.928-.088-1.471-.111-2.037.546-2.977.228a8.042,8.042,0,0,1-3.116,1.147c.4-.346-1.279.469-.808-.094-.4.338-1.544.495-1.623.8a2.142,2.142,0,0,1,1.028-.4c-.452.273-.426.5-1.018.7-.091-.005-.07-.08-.07-.08-.666.515.051.832-1.206,1.422-1.592.892-1.565.676-1.227.2s1.061-1.15.785-1.109a6.131,6.131,0,0,1-2.167,1.326l.11-.165a2.478,2.478,0,0,1-1.133.727,6.566,6.566,0,0,1-.337,1.195q-.669.474-1.314.981l.175-.339a7.784,7.784,0,0,1-.777.69c-.257-.1.167-.346.515-.722-.345-.014-.608.194-.772.619l.171-.113c-.264.362-1.223,1.607-.231.906-.557.749-1.079.573-1.469,1.08-.183-.107.212-.534-.128-.438a4.811,4.811,0,0,0-1.1,1.058c.4-.289.032.228.671-.215-.143.28-.663.856-.569.906a1.331,1.331,0,0,1,.606-.6,10.687,10.687,0,0,1-1.786,1.772.535.535,0,0,1,.041-.246c-.486,1.036-1.574,2.27-1.654,3.106l.251-.21a1.51,1.51,0,0,1,.585-.809c-.41.7.639-.22.254.549-.556,1.013-1.481,1.641-1.429,2.416a25.563,25.563,0,0,0,1.778-2.415l-.438.546q.26-.8.576-1.6c.185.076.848-1.171,1.076-.927-.334.449-.668.832-.92,1.188.168,0,1.022-1.079,1.462-1.464l-.587.456a23.9,23.9,0,0,1,2.837-3.23c-.612.836,1.128-.637.677.084-.145.337-.716.47-.552.431.107.282.63-.451.967-.437-.02-.233.957-1.092.216-.808.408-.153.99-.934,1.588-1.078-.335-.194.782-.773.89-1a1.74,1.74,0,0,1,.637-.19c-.409.361-.891.824-1.365,1.328v0c-.256.1-.673.389-.508.366l.065.111c-.927,1.015-1.74,2.1-2.15,2.639l.131-.338c-.474.947-1.495,1.3-1.976,2.249-.015-.073.048-.171-.093-.047-.908.866-.778,1.62-1.607,2.215l-.068-.214c-.039.081-.277.638-.039.672a6.189,6.189,0,0,1,1.014-1.392,4.13,4.13,0,0,1-.677,1.307l.227.242c-.1.685-.868.886-.917,1.583l.578-.451-.041.116a1.6,1.6,0,0,0,.263-.627,1.759,1.759,0,0,1,1.462-1.078c.394-.3.2.4.389.487.45-.621.149-.833.637-1.449.207-.144.165.024.108.12l.273-.542c.089.044,1.1-.824.693-.11-.09.074-.238.231-.367.34.919-.615,2.506-1.6,2.694-1.264.5-.293.261-.339,1.06-.8.2-.459-.348-.411.391-1.14l-.738.358c-.106.14-.176.275-.3.416l.661-.519c-.362.407-.2.463-.178.758a8.04,8.04,0,0,1-2.125,1c.171-.413.752-.812.349-.891.686-.192.4-.673,1.173-.924l-.068.155c.355-.565.6-.368.9-.841,0,.075.081.068.157.061.854-.733-.4.026.384-.846.877-.493.547.269.86.254-1.156,1.237.289.418-.966,1.676.252.344.825.005,1.573-.517-.607.161,0-.739-.842-.558,1.079-.914.583-1.594,2.192-1.993l0,.074.459-.567c.3-.078.6-.153.9-.22-.337.63-1.042.726-1.318,1.159,1.165-.076,1.124-1.04,2.329-1.48,1.157.095-1.088.737-.9,1.148.182-.206.89-.263.86-.113-1.119.3-.535.5-1.789.842.5-.407-.147-.084-.125-.3a8.01,8.01,0,0,1-1.912,1.209c-.009.366.766-.159,1.305-.282.738-.791,1.948-.672,2.5-1.321.991-.435.184.249.262.261.945-.21.3-.392.558-.569,1.31-.713,1.651-.164,2.624-.391a4.006,4.006,0,0,1,1.835-.641,12.69,12.69,0,0,1,2.307-.1c-.166.148.016.262.092.4.811-.55.518-.343,1.549-.6-.271-.109-.552-.2-.84-.293.7-.021,1.337-.34,1.9.108-.359-.348-.066-.395.4-.338s1.063.248,1.338.26c.594.431,1.412.422,1.581.915l-.095-.031a9.322,9.322,0,0,1,.812.617l-.4.341a2.734,2.734,0,0,0,.958.651l.047.015.023.007-.01-.022.061,0c.074,0,.117-.033.1-.1.378.569.051.328-.051.56a6.638,6.638,0,0,1-.768-.31c-.214-.087-.449-.262-.407-.491.021.064.123.161.186.132-.628-.627-.861-.548-.986-.4s-.2.395-.579.253c.35.244.462.609.89.761a5.23,5.23,0,0,0,.556.288l.136.087.071.045.019.01.008.007,0,0h0l-.037-.035h0l.023.012.183.092c.125.057.234.121.339.161a1.067,1.067,0,0,1-.506-.426,2.05,2.05,0,0,1-.126-.179l-.053-.125a2.612,2.612,0,0,0-.161-.31.663.663,0,0,0,.366.193.358.358,0,0,1,.178.1l.095.1.024.032.011.017h0c-.066-.062-.016-.017-.03-.032h0v0l0,.005.021.059-.068,0h-.018l.034.032h-.009l-.01,0-.044-.012a2.443,2.443,0,0,1,.4.142c-.16.238.609.943-.044.687.375.386.334-.027.711.341a7.156,7.156,0,0,0-.522-.885l.256-.2c.422.159.3.385.56.733l.28-.234a7.215,7.215,0,0,1,.152.856c.166-.2.374.4.481.557.04.494-.579.395-.032,1.026l.021-.065a2.3,2.3,0,0,1,.436,1.334c-.067-.025-.148-.2-.193-.282a12.784,12.784,0,0,0,.292,1.632c.1.563.118,1.083-.148,1.312-.283-.079-.132-.485-.458-.493a1.242,1.242,0,0,0-.177-1.247,2.069,2.069,0,0,1-.445-1.312c.346-.119.159-.425-.049-.721s-.438-.577-.167-.846c.147.54.79,1.211.835,1.094-.193-.564-.5-1.284-.607-1.655-.064.409-.487.465-.8.385a2.976,2.976,0,0,1,.5,1.546c.072.664.057,1.407.081,2.073l.423-.193c.408,1.158-.413-.109-.375.8l.338.4-.039.062c.135.229.267.464.392.708-.011-.509-.332-.275-.153-.824.122-.487.328.008.577.15-.109.342-.077,1.579-.339.808.128.451.249.915.347,1.392-.159-.026-.2-.334-.277-.478,0,.33-.01.662-.023,1l-.057-.044c.1.823-.107,1.954.047,2.644.616-1.331.213.745.462.687-.177.5-.94.44-.983-.666.31-.226.147-1.014.209-1.537a4.366,4.366,0,0,0-.208,1.431c-.108-.415-.415.642-.578.589a.8.8,0,0,1-.107-1.03c.227-.986.415-.024.4-.331.475-.188.186-1.412.364-1.99.044-.059.07.145.082.245.055-.524.125-1.614-.169-1.7.056.423.092.857.119,1.3-.121.269-.216-.423-.427-.041a2.239,2.239,0,0,1-.092,1.023l-.111-.09a12.091,12.091,0,0,0-.639,2.876c.563.367.8.949,1.319,1.567a19.187,19.187,0,0,1-1.818,4.182,5.338,5.338,0,0,1,.613-2.369l-.022.486a2.485,2.485,0,0,0,.267-1.542c.044.059.1.01.218-.09.185-.746-.052-1.23-.386-.93l.031.268-.456.39c.5.384-.344,1.706-.46,2.571,0-.64-.323-1.291.275-1.848l-.313-.033c.182-.6.638-1,.459-1.422l-.167.718-.149-.065c-.153.495-.153,1.21-.506,1.59a2.809,2.809,0,0,1-.4,1.974l-.04-.062c.157.963-1.313,1.735-1.406,2.327.3.587.85-.938,1.223-1.179-.039.535-.568.834-.071.636-.35,1.122-.753.336-.927,1.325l.406-.37c0,.5-.526,1-.56,1.487.282.274.413-.582.955-1.2l.053.471c.209-.523.4-1.051.579-1.581-.2-.661-.4-.267-.237-1.317.51-.32,1.111-.385,1.344-.008-.343.328-.609,1.109-.887.93.072.572-.417,1.863-.018,1.808l-.078.165a8.064,8.064,0,0,0-2.271,1.991c-.189.219-.05.391.229.536a4.936,4.936,0,0,0-.748.566,1.427,1.427,0,0,1,.277-.837,17.254,17.254,0,0,1-1.626,1.547l.024-.224-.471.7c.263-.315.907-.808.985-.439a2.807,2.807,0,0,1-.443.529c-.157.144-.255.222-.432.361l-.251.2c-.041.038-.147.13-.216.2a2.621,2.621,0,0,0-.425.563c-.349-.473-.664-.35-.61-.811a.229.229,0,0,1,.108-.045,3.145,3.145,0,0,1,.336-.835l.032-.054,0-.008v0h0c-.062.048-.016.013-.032.023v0l.008-.013.017-.028.069-.112c.047-.074.095-.147.143-.216a2.963,2.963,0,0,1,.185-.29,14.258,14.258,0,0,0-1.322.928,10.846,10.846,0,0,1-1.3.906c-.324-.178,1.124-1.281.648-1.216l.732-.449.182-.112.093-.057.045-.029.012-.007h0c-.077.06-.022.016-.037.03h0l.007,0,.023-.015.371-.237a1.092,1.092,0,0,0-.279.415c.1-.119.2-.222.292-.315.077-.084.1-.123.158-.174.086-.083.222-.207.319-.292a1.53,1.53,0,0,0,.491-.785c.43-.216-.306.686.083.372a2.089,2.089,0,0,0-.275,1.232c.914-.655.177-.736.732-1.511.231-.108.467-.224.7-.35.245-.377-.23,0-.323-.05.285-.458.578-.488.841-.813-.137.049-.379.213-.435.081.628-.378.889-1.034,1.653-1.321-.4.192-.253-.683-.164-.974-.372.3-.739.583-1.116.845a9.589,9.589,0,0,1-1.258,1.711c-.433.49-.877.958-1.379,1.555l-.056-.2c-.143.082-.219.1-.31.155l-.373.239a4.848,4.848,0,0,0-.606.493,3.327,3.327,0,0,0-.653.914,4.39,4.39,0,0,1-1.653,2.017c-.323-.336-1,.751-1.162.314.689-.418.454-.474.144-.525-.3.387-.371.843-1.216,1.163.153-.37-.605-.132.076-.662-1.061.544-1.582.879-1.908,1.519-.739.617-.928.552-1.111.482s-.379-.158-1.146.3l.17-.264c-.329.169-.658.324-.987.471l.416.086c-.368.245-.742.48-1.125.7-.684.484.4.178.362.383l.15-.406c.53-.1,1.12-.66,1.316-.486-.795.385-.5.546-.786.8.249-.141.495-.29.739-.44l.356.122a3.785,3.785,0,0,0,1.757-1.087c-.377.053-.412.492-.786.46.2-.564,1.125-1.081,1.97-1.752.073.071.38-.078.3.069,0,.045-.161.139-.259.177.165.119-.293.535.641.11a8.138,8.138,0,0,0-.507,1.334,5.441,5.441,0,0,1-1.7.9l.009-.071c-.475.193-1.348.907-1.546.654-.255.185-1.028.578-.146.422-.43.233-.863.452-1.307.655.049-.582-1.221-.289-.051-1.128-.041.024-.493.252-1.242.554l.024-.06.076-.12c.159-.027.246-.077.3.013.348-.508-.348-.384-1.053-.256l-.1.336a4.356,4.356,0,0,0-1.85-.005,15.346,15.346,0,0,1-1.916,1.237c-.2.026-.4.042-.6.06-.263-.179-1.172-.121-.789-.444-.077-.147.223-.194.605-.107.057.04-.041.058.02.1.119-.183.166-.4-.276-.632.462.071.522.107.848-.02l-.466-.058c.7-.027,1.719-.506,1.679-.772-.181.386-.625.036-.972-.034.273-.069.826-.3.4-.326-.142.166-1.35.352-.5.514a2.354,2.354,0,0,1-1.285.116c.507-.146.191-.3.343-.536a.926.926,0,0,0-.536.568c-1.243-.454-1.589-1.194-3.035-1.285-.193,0,.871.1.681.305a1.3,1.3,0,0,1-1.149-.342c-.134-.116-.277-.239-.412-.336a1.317,1.317,0,0,0-.579-.216l.161.493a9.031,9.031,0,0,1-1.2-.258c-.024-.156-.565-.738-.011-.616a1.312,1.312,0,0,0-1.151-.265,1.293,1.293,0,0,1-1.273-.481,3.034,3.034,0,0,0,.929.853c-.592-.141-.179.1-.395.3-.145-.407-1.119-.967-.328-.725-.343-.3-.928-.988-1.19-1.064.045.142.1.274.155.411a3.688,3.688,0,0,0-1.453-1.073,1.544,1.544,0,0,0,.76.612,2.309,2.309,0,0,1,.85.674c.635,1.044-.431.008-.145.859a8.552,8.552,0,0,0,.863.347c-.094-.1-.2-.191-.287-.292.183-.112.422.1.668.274s.476.305.564.065a2.215,2.215,0,0,0,.738.717,7.96,7.96,0,0,1,.933.661c.281-.08-.064-.215-.316-.338a.769.769,0,0,0,.551,0,1.01,1.01,0,0,1,.76.267c.162.087.229.012.154-.108a.675.675,0,0,0-.185-.2.964.964,0,0,0-.157-.1,2.252,2.252,0,0,0-.254-.1l.24.085.194.057.4.107c.283.074.573.148.874.252l-.542-.477.644.168-.492-.322a10.316,10.316,0,0,1,3.188,1.074c-1.105.238-2.889-.307-3.674,0,.21.22.979-.123,1.194.388l.4-.216c.411,0,1.308.026,1.345.333a9.345,9.345,0,0,0-2.055.354c-.02.061-.128.07-.292.041l-.017,0,.012-.005c-.337-.05-.861-.238-1.187-.258-.352-.18-.043-.264.012-.312a2.284,2.284,0,0,0-.435-.227c-.082-.033-.167-.062-.247-.087l-.125-.036-.083-.02a7.752,7.752,0,0,0-.8-.108,2.465,2.465,0,0,1-1.576-.605c.119-.22-.606-.827-.282-.76a4.427,4.427,0,0,0-1.467-.756c.093-.228-.67-.908-.232-.786-.244-.088-.48-.2-.722-.313-.165-.459-.826-1.251-.651-1.534-.3-.451-.446.046-.627-.709.072.01.083-.06.131.089a2.978,2.978,0,0,0-.588-1.443,3.872,3.872,0,0,0,.12.781c-.155.049-.631-.588-.634-1.385.652.886.181-.882.519-.469a29.427,29.427,0,0,0-1.423-3.858c-.158-1.705.14-3.818-.023-5.2l-.035.175-.118-.836c.077-.464.418.058.434-.674.324.3-.145,1.254.051,2.016.5-1.2.239,1.185.625.392-.35-.269-.31-.935-.182-1.664a8.253,8.253,0,0,0,.262-2.082c.321-1,.206.535.363.038l-.152-.376c.161-.387.273-.5.426-.445a11.616,11.616,0,0,0,.725-3.128c-.288,1.111-.186-.509-.615.552a4.483,4.483,0,0,1,.542-1.693c-.186.582.843-.458.11.685.213-.009.277-.177.324-.389a1.681,1.681,0,0,1,.1-.365l.05-.119.008-.016,0-.007v0h0c-.007.014.02-.033-.019.032h0v0l.014-.028.03-.06a1.636,1.636,0,0,1,.143-.23l-.088.36c.013.061-.068.277-.068.359-.009.178-.019.349.01.335-.1-.394.522-1.221,1.017-1.827.514-.632,1-1.165.971-1.445a27.792,27.792,0,0,1,.979-2.993,27.439,27.439,0,0,0,2.086-2.352l-.012.242c.452-.415.964-1.232,1.636-1.83l.339.052a13.145,13.145,0,0,1,1.862-1.919c-.1-.135-.722.462-.548.044-.352.306-.616.606-.376.62-.338.316-.534.137-.9.318.388-.47.79-.932,1.208-1.38.123-.083.178-.1.2-.086l-.094-.316c.363-.308.523-.331.538-.186.72-.735.772-1.274,1.721-1.835a2.894,2.894,0,0,1-.981,1.254c.327-.251.656-.495.992-.73-.313.533-2,1.8-1.419,1.931.885-1.006,2.322-2.337,3.171-3.243.71-.017,1.329-.831,2.344-1.131.159.008.486-.034.371.178l-.257.128c1.258-.5,2.633-1.238,3.745-1.82.233.054.463.109.693.172,2.067-.35-.529-.47,1.58-1.02.579.237,2.673-.241,2.8.063.4-.073.583-.076.615-.306-.368,0-1.17.162-.738-.146a8.1,8.1,0,0,1,1.7-.078c-.037.061-.445.292-.222.225,1.438-.271,4.14-.247,5.572-.749-.534.027-.6.246-1.3.1.018-.164.391-.121.551-.2-.075-.305-.737.173-1.467-.061.414-.113.832-.226,1.252-.327l-.693-.305c.951-.242,1.953-.451,2.908-.642a6.919,6.919,0,0,0-2.883.171,5.884,5.884,0,0,1-2.539.188c.3-.1,0-.174-.076-.249a8.227,8.227,0,0,0-1.713.44l-.979.077c-.007-.159.334-.607,1.349-.67a19.226,19.226,0,0,0-4.809.99c-1.5.477-2.952,1.014-4.655,1.509-.167-.019.408-.258.141-.21-.415.251-1.1.655-1.025.737.015-.075.046-.229.329-.354-1.621.848-2.706.884-3.623,1.689-.159-.143.726-.567.558-.555-1.685.766-2.141,1.816-3.568,2.911.3-.6-.5.011-.986.207-.5.577-1.327,1.414-2.163,2.361a30.721,30.721,0,0,0-2.318,2.934c-.086-.455-.492.024-.932.6s-.909,1.247-1.207,1.145c-.3.4-.665,1.1-.511,1.277.068-.293.612-.737.66-.592-.394.614-1.007,1.541-.822,1.785l-.744.579a.81.81,0,0,1-.042.971c-1.075.615.4.113-.7,1.269a3.521,3.521,0,0,0-.074-1c-.455.614-.283.6-.519,1.086-.242.059-.131-.708.083-1.265l-.671.741c-.092.469-.288,1.213-.449,1.943a14.091,14.091,0,0,1-.66,2.219c-.125-.3.055-.779-.362-.49a8.729,8.729,0,0,1-.421,2.418c.007-.122-.049-.059-.044-.18-.05,1.568-.358,1.1-.649,2.477l-.093-.085.076.877c.285,1.827-.571,1.932-.853,3.016l-.036-.243a4.137,4.137,0,0,0-.212,1.775,15.283,15.283,0,0,1,.041,1.746c.189-.788.2-.274.553-.847-.093-.672-.541-.466-.374-1.6.337.159.461,1.574.754,1.851a1.3,1.3,0,0,1-.676,1.158,19.023,19.023,0,0,0,.7,4.41c.208.312.532.542.812.893a3.1,3.1,0,0,1,.611,1.664l-.149-.034c.225-.039.266.751.583.968.073-.662.532.493.527-.263a1.059,1.059,0,0,1-.087,1.424c.391.159.6.58.869,1.1a3.988,3.988,0,0,0,1.277,1.538c-.355-.008-1.487-1.233-1.219-.558a12.3,12.3,0,0,0,1.786.966c-.217-.183-.423-.375-.625-.572,1.3.7,1.343,1.248,1.972,1.868.062.215-.449-.033-.785-.3a5.15,5.15,0,0,0,1.584.819c.234.039.713.189,1.221.294a4.934,4.934,0,0,0,1.36.138l.207.1-.119.028a2.1,2.1,0,0,0,.3.055l.68.3-.161.025.287.027Z" transform="translate(-298.099 -313.018)" fill="#fff"></path><path id="Path_114-2" data-name="Path 114" d="M310.9,330.992c-.074.28-.469.806-.2.837-.231-.142.653-.971.2-.837" transform="translate(-296.97 -311.397)" fill="#fff"></path><path id="Path_115-2" data-name="Path 115" d="M310.263,331.472c.024.074.125.1-.035.354l.415-.708Z" transform="translate(-297.005 -311.385)" fill="#fff"></path><path id="Path_116-2" data-name="Path 116" d="M308.556,331.2a3.222,3.222,0,0,1-.51,1.4c-.7-.089.431-1.1.119-1.694-.774,1.105-.483,1.749-.927,2.733a5.774,5.774,0,0,0,.964-1.257c.316-.523.547-1.028.354-1.18" transform="translate(-297.274 -311.404)" fill="#fff"></path></g><g id="Group_1305" data-name="Group 1305" transform="translate(401.492 56.126)"><path id="Path_33" data-name="Path 33" d="M106.83,68.672c-.361-.2-1.687-.038-1.361.255.717,1.383-1.518,9.5,3.426,5.027.555-.806,2.831-.523,1.709-2.186-1.014-1.223-1.931-2.814-3.775-3.1m-1.711-4.994a10.574,10.574,0,0,1,.183,3.329c1.8.641,3.591-.668,5.29-.982.564-.919,2.058-1.331,1.474-2.577a7.387,7.387,0,0,0-6.95.23m6.187-1.852a2.371,2.371,0,0,1,1.9,2.762c0,.03-.011.06-.017.088a7.077,7.077,0,0,1-4.629,3.679c1.648,1.291,3.773,2.656,3.244,5.059-1.848,1.593-4.183,2.3-6.436,3.147-1.3-4.8-1.22-10.075-1.209-14.682,2.195,1.3,4.68-1.085,7.147-.052" transform="translate(-104.151 -20.198)" fill="#00afe6"></path><path id="Path_34" data-name="Path 34" d="M123,64.39c-.577,1.495-3.012,1.1-4.26,2.075-.881.759-.652,1.692-.5,2.665a23.709,23.709,0,0,0,4.643-.326c.138.36-.086.661-.307.968a7.745,7.745,0,0,0-4.086.962,2.756,2.756,0,0,0,2.315,2.2c.743.769,2.273-1.68,1.914.321-1.39.757-3.764.941-4.842-.941-.951-2.116-1.521-5.209-.289-7.345,1.827.793,3.452-.7,5.415-.583" transform="translate(-104.638 -20.306)" fill="#00afe6"></path><path id="Path_35" data-name="Path 35" d="M127.7,70.515c-.36,2.763,2.341.011,3.59.113.506-.255,1.456-.973,2.148.174a20.78,20.78,0,0,0-5.992,2.65c-1.3-1.874-.446-4.162-.161-6.059.133-.823-.883-2.6.167-3.2,1.308,1.953.481,4.24.248,6.314" transform="translate(-105.016 -20.299)" fill="#00afe6"></path><path id="Path_36" data-name="Path 36" d="M141.009,62.2c-.647,1.46-3.059.943-4.358,1.861-.916.712-.735,1.653-.628,2.636a23.658,23.658,0,0,0,4.652-.1c.118.363-.118.654-.356.945a7.8,7.8,0,0,0-4.125.764,2.756,2.756,0,0,0,2.2,2.308c.7.806,2.351-1.567,1.891.415-1.425.688-3.8.752-4.787-1.179-.846-2.161-1.26-5.278.071-7.351,1.784.881,3.483-.534,5.435-.313" transform="translate(-105.32 -20.222)" fill="#00afe6"></path><path id="Path_37" data-name="Path 37" d="M150,63.434c.061.8-1.451,1.612-1.556,2.637-.232,1.437-1.174,2.738-.691,4.439a1.858,1.858,0,0,1-1.05.244c-1.027-2.163-4.039-3.769-3.786-6.3,1.418-.649.994,1.765,2.077,2.268,1.84,4.666,2.212-.769,2.988-2.081.757-.568.971-1.893,2.02-1.2" transform="translate(-105.633 -20.263)" fill="#00afe6"></path><path id="Path_38" data-name="Path 38" d="M153.948,63.8c.192,2.365-.385,4.56-.68,6.873-1.286-.088-.307-1.692-.787-2.6.392-1.57.011-3.6,1.071-4.654a1.833,1.833,0,0,0,.4.385" transform="translate(-106 -20.27)" fill="#00afe6"></path><path id="Path_39" data-name="Path 39" d="M167.975,62.942c-2.233.324-.855,3.063-1.805,4.394a3.964,3.964,0,0,1-.521,2.542c-.178.431-.72.023-.866.45-2.226-1.514-3.288-3.487-5.357-5.087-.993,1.758.731,4.514-1.718,4.656.663-2.176.06-4.881,1.048-6.906.161,0,.426-.009.613-.015,1.812,2.034,3.25,4,5.386,6.155,1.493-2.069.12-5.707,2.543-6.81.246.18.414.443.684.621" transform="translate(-106.199 -20.227)" fill="#00afe6"></path><path id="Path_40" data-name="Path 40" d="M177.466,62.558c-2.159-.026-5.113-.332-6.474,1.839a4.826,4.826,0,0,0,.755,3.584,4.727,4.727,0,0,0,3.4.838c.673-.789-.679-3.419,1.233-2.728-.283,1.169.553,2.564-.047,3.758a7.96,7.96,0,0,1-4.971-1.076,5.224,5.224,0,0,1-1.214-5.263c1.42-2.678,4.9-1.7,7.321-1.563,0,.266,0,.426,0,.613" transform="translate(-106.665 -20.202)" fill="#00afe6"></path><path id="Path_41" data-name="Path 41" d="M189.83,64.052c-.107,2.373-.945,4.472-1.524,6.732-1.267-.246-.1-1.718-.461-2.676.585-1.509.457-3.576,1.635-4.485a1.869,1.869,0,0,0,.345.427" transform="translate(-107.346 -20.277)" fill="#00afe6"></path><path id="Path_42" data-name="Path 42" d="M203.845,64.961c-2.253.043-1.224,2.93-2.336,4.136a3.97,3.97,0,0,1-.834,2.463c-.225.4-.717-.073-.918.335-2.02-1.777-2.831-3.867-4.684-5.711-1.2,1.621.165,4.568-2.281,4.4.928-2.075.666-4.832,1.9-6.719.159.014.426.043.611.061,1.546,2.242,2.727,4.368,4.581,6.772,1.737-1.863.823-5.648,3.366-6.444.218.208.352.487.6.7" transform="translate(-107.541 -20.287)" fill="#00afe6"></path><path id="Path_43" data-name="Path 43" d="M215.839,65.729c.192.89-1.192,2,.268,2.144.528.078,1.608.4,1.346-.686-.238-.577-.529-2.212-1.614-1.458m-.3,4.159c-.989-.42-.753,1.582-.893,1.964.631-.253,1.751.185,1.79-.78-.289-.394-.577-.787-.9-1.185M218.559,67c1.443,2.59-4.251,1.731-1.1,4.226-.066,1.689-1.924,1.676-3.038,2.1-.448-.066-.988-.066-1.154-.6a55.533,55.533,0,0,1,1.8-9.049A4.727,4.727,0,0,1,218.557,67" transform="translate(-108.324 -20.279)" fill="#00afe6"></path><path id="Path_44" data-name="Path 44" d="M228.987,66.28c-.98,1.267-3.2.192-4.675.769-1.058.474-1.108,1.443-1.239,2.412a23.527,23.527,0,0,0,4.542,1.01c.03.385-.27.614-.57.841a7.746,7.746,0,0,0-4.19-.239,2.753,2.753,0,0,0,1.595,2.768c.49.952,2.654-.962,1.739.851-1.552.328-3.878-.169-4.373-2.281-.311-2.3.028-5.426,1.818-7.122,1.522,1.28,3.507.311,5.353.988" transform="translate(-108.647 -20.341)" fill="#00afe6"></path><path id="Path_45" data-name="Path 45" d="M242.571,69.954c-3.4.258-1.518,6.243-5.268,5.983-.242-1.741-1.672-3.2-2.381-4.864-1.781,1.4-2.142,4.061-3.91,4.815-.95-1.655-.782-4.8.071-6.53,1.587-.019.056,2.789.616,4.086,1.771-1.046,2.116-3.288,3.655-4.7.956,1.865,1.488,4.2,2.958,5.992,1.586-1.814.975-5.657,4.208-5.826-.289.481.363.628.049,1.05" transform="translate(-108.978 -20.473)" fill="#00afe6"></path><path id="Path_46" data-name="Path 46" d="M251.047,68.356c-.9,1.327-3.182.385-4.616,1.058-1.029.542-1.014,1.5-1.085,2.487a24,24,0,0,0,4.6.726c.054.377-.232.626-.515.872a7.776,7.776,0,0,0-4.2.023,2.754,2.754,0,0,0,1.764,2.663c.548.919,2.6-1.127,1.79.742-1.524.426-3.88.071-4.506-2-.454-2.276-.313-5.418,1.364-7.224,1.6,1.183,3.52.088,5.406.651" transform="translate(-109.502 -20.433)" fill="#00afe6"></path><path id="Path_47" data-name="Path 47" d="M260.2,70.388c-2.159-.077-5.1-.448-6.513,1.689a4.851,4.851,0,0,0,.673,3.6,4.738,4.738,0,0,0,3.383.916c.692-.769-.6-3.433,1.3-2.7-.311,1.16.493,2.578-.136,3.758a8.016,8.016,0,0,1-4.941-1.192,5.225,5.225,0,0,1-1.092-5.29c1.477-2.641,4.935-1.584,7.354-1.392-.011.267-.015.426-.021.614" transform="translate(-109.827 -20.498)" fill="#00afe6"></path><path id="Path_48" data-name="Path 48" d="M264.25,71.26c.054,2.371-.641,4.53-1.064,6.822-1.278-.161-.214-1.708-.641-2.639.481-1.544.214-3.6,1.333-4.581a1.9,1.9,0,0,0,.371.4" transform="translate(-110.208 -20.554)" fill="#00afe6"></path><path id="Path_49" data-name="Path 49" d="M277.72,70.395c-2.221.379-.776,3.078-1.694,4.432a3.985,3.985,0,0,1-.459,2.559c-.163.435-.716.035-.853.471-2.266-1.458-3.381-3.4-5.482-4.95-.949,1.781.844,4.491-1.6,4.7.611-2.193-.062-4.881.874-6.925.163-.011.427-.023.613-.033,1.863,1.989,3.349,3.914,5.538,6.015,1.438-2.1-.026-5.707,2.373-6.871.248.176.42.431.7.609" transform="translate(-110.403 -20.513)" fill="#00afe6"></path><path id="Path_50" data-name="Path 50" d="M286.208,68.732c-2.139.289-5.1.42-6.135,2.759a4.8,4.8,0,0,0,1.267,3.434,4.733,4.733,0,0,0,3.488.339c.551-.881-1.167-3.284.825-2.879-.112,1.2.919,2.457.5,3.726a8.048,8.048,0,0,1-5.074-.343,5.243,5.243,0,0,1-1.964-5.036c1.017-2.851,4.6-2.39,7.021-2.606.037.265.056.424.079.6" transform="translate(-110.839 -20.449)" fill="#00afe6"></path><path id="Path_3235" data-name="Path 3235" d="M107.284,44.956h12.29c.128,0,.3-.042.428-.042a3.1,3.1,0,0,0,2.055-.943,3.19,3.19,0,0,0,.9-1.584l.642-3.9a2.774,2.774,0,0,0,0-.6c-.129-1.156-.814-1.755-2.4-1.926a1.9,1.9,0,0,0-.47-.043h-4.625c-.428,0-.857-.043-1.285-.086-3.683-.6-5.61-3.127-5.1-6.167l.6-3.9c.557-3.425,1.97-5.4,4.882-6.594a8.194,8.194,0,0,1,3.683-.6h12.5l-.729,4.454H117.989c-.171,0-.342.043-.514.043a2.435,2.435,0,0,0-2.527,2.012c-.043.171-.086.343-.129.515l-.471,3.04a2.659,2.659,0,0,0-.042.557c-.086,1.841.642,2.655,2.441,2.655h5.4c4.068,0,6.509,2.868,6.038,5.908l-.77,4.882a7.554,7.554,0,0,1-3.726,5.481,7.96,7.96,0,0,1-4.325,1.285h-12.8Z" transform="translate(-104.243 -18.555)" fill="#00afe6"></path><path id="Path_3236" data-name="Path 3236" d="M133.847,32.459a6.548,6.548,0,0,1,6.937-5.868h7.28a5.444,5.444,0,0,1,3.64.986,4.5,4.5,0,0,1,1.542,4.624L151.49,43.293a7.45,7.45,0,0,1-6.937,6.423h-9.592l-1.2,7.536h-3.854Zm2.1,11.133c-.043,1.071.171,1.542.856,1.97a1.73,1.73,0,0,0,.943.3h7.323a3.52,3.52,0,0,0,.77-.129,2.451,2.451,0,0,0,1.627-1.671c.043-.171.086-.342.129-.471l1.713-11.005.042-.257c.086-1.285-.128-1.627-1.37-1.842a.741.741,0,0,0-.3-.042h-6.895c-1.8,0-2.911.857-3.126,2.355l-1.671,10.363C135.988,43.336,135.946,43.463,135.946,43.592Z" transform="translate(-105.136 -18.861)" fill="#00afe6"></path><path id="Path_3237" data-name="Path 3237" d="M158.955,31.987a7.287,7.287,0,0,1,.386-1.371c.943-2.4,2.655-3.639,5.61-3.983a8.163,8.163,0,0,1,1.028-.043h7.108a7.611,7.611,0,0,1,.942.087c3.3.471,4.8,2.313,4.325,5.31L176.47,44.021c-.385,2.226-1.5,3.726-3.983,5.01a6.3,6.3,0,0,1-3.082.685H162.3c-3.64,0-5.739-2.483-5.225-5.695Zm4.454,13.875h6.209a2.578,2.578,0,0,0,2.484-1.157,3.514,3.514,0,0,0,.685-1.756l1.542-9.72c.257-1.884-.514-2.783-2.27-2.783H165.85a2.777,2.777,0,0,0-2.569,1.114,3.572,3.572,0,0,0-.642,1.67l-1.5,9.55C160.8,44.92,161.654,45.863,163.409,45.863Z" transform="translate(-106.172 -18.861)" fill="#00afe6"></path><path id="Path_3238" data-name="Path 3238" d="M183.582,32.715a12.149,12.149,0,0,1,.3-1.327c.814-3.04,2.184-4.283,5.353-4.711a8.236,8.236,0,0,1,1.028-.087h2.184l-.642,3.9H189.92a2.389,2.389,0,0,0-1.414.429,2.192,2.192,0,0,0-1.07,1.884l-2.7,16.914h-3.854Z" transform="translate(-107.086 -18.861)" fill="#00afe6"></path><path id="Path_3239" data-name="Path 3239" d="M197.075,18.577h3.855l-1.2,7.708h3.983l-.642,3.855h-3.983l-3.04,19.27h-3.854Z" transform="translate(-107.518 -18.555)" fill="#00afe6"></path><path id="Path_3240" data-name="Path 3240" d="M207.548,18.577H211.4l-1.242,7.708h8.95c3.725,0,5.4,1.543,5.439,4.754a4.3,4.3,0,0,1-.087,1.07l-1.755,11.262a6.512,6.512,0,0,1-3.126,4.882,7.588,7.588,0,0,1-3.6,1.156H208.4c-1.884,0-3.383-.942-4.453-3.168a5.09,5.09,0,0,1-.257-3.34ZM209.09,45.47a2.147,2.147,0,0,0,.557.087h6.723a1.913,1.913,0,0,0,.857-.172,2.435,2.435,0,0,0,1.37-1.456,5.1,5.1,0,0,0,.3-.813l1.627-10.407c.3-1.884-.342-2.569-2.141-2.569h-6.338a1.2,1.2,0,0,0-.386.042c-1.584.129-2.226.815-2.483,2.441l-1.627,10.193A2.142,2.142,0,0,0,209.09,45.47Z" transform="translate(-107.953 -18.555)" fill="#00afe6"></path><path id="Path_3241" data-name="Path 3241" d="M229.824,33.272c.729-4.454,3.34-6.681,8.222-6.681h5.739c3.725,0,5.738,2.185,5.139,5.91l-.429,2.741-16.23,7.023-.128.77v.258c-.043,2.1.386,2.57,2.184,2.57h12.761l-.642,3.853H233.507c-3.684,0-5.867-2.483-5.311-6.08Zm15.2-.471c0-.086.042-.214.042-.3.257-1.542-.257-2.055-2.055-2.055h-6.251c-1.842,0-2.741.857-3.083,2.912l-.728,4.667Z" transform="translate(-108.892 -18.861)" fill="#00afe6"></path><path id="Path_3242" data-name="Path 3242" d="M253.954,32.109a9.873,9.873,0,0,1,.3-1.07c1.028-3.255,3.211-4.754,6.895-4.754h8.992l1.2-7.708h3.854L271.339,42.9a6.673,6.673,0,0,1-1.328,3.34c-1.8,2.27-3.6,3.168-5.438,3.168h-7.58a4.228,4.228,0,0,1-1.028-.128c-3-.77-4.282-2.827-3.768-5.91Zm2.1,11.262c.043,1.414.429,1.927,1.328,2.142a1.437,1.437,0,0,0,.428.043h6.723A2.762,2.762,0,0,0,266.158,45a1.009,1.009,0,0,0,.342-.257,3,3,0,0,0,.985-1.926l1.627-10.193c.257-1.67-.214-2.312-1.712-2.441a1.2,1.2,0,0,0-.386-.042h-6.338c-1.8,0-2.654.728-2.955,2.569l-1.627,10.407A.532.532,0,0,0,256.051,43.371Z" transform="translate(-109.809 -18.555)" fill="#00afe6"></path><path id="Path_3243" data-name="Path 3243" d="M278.826,32.715a12.149,12.149,0,0,1,.3-1.327c.815-3.04,2.184-4.283,5.353-4.711a8.236,8.236,0,0,1,1.028-.087h2.184l-.642,3.9h-1.884a2.389,2.389,0,0,0-1.414.429,2.195,2.195,0,0,0-1.07,1.884l-2.7,16.914h-3.854Z" transform="translate(-110.728 -18.861)" fill="#00afe6"></path><path id="Path_3244" data-name="Path 3244" d="M291.077,26.284h3.854l-3.683,23.125h-3.855Zm.942-7.065a2.55,2.55,0,0,1,3.683.257,2.756,2.756,0,0,1-.256,3.854,2.644,2.644,0,0,1-3.726-.3,3.022,3.022,0,0,1-.6-1.8A2.758,2.758,0,0,1,292.018,19.219Z" transform="translate(-111.159 -18.554)" fill="#00afe6"></path><path id="Path_3245" data-name="Path 3245" d="M292.491,53.092h1.8c1.5-.3,1.926-.642,2.312-2.013.042-.171.086-.3.128-.471l3.855-24.324h3.854l-3.854,24.324c-.385,2.4-1.114,3.81-2.441,4.882a5.8,5.8,0,0,1-3.512,1.455h-2.74Zm9.12-33.873a2.555,2.555,0,0,1,3.683.257,2.721,2.721,0,0,1-.3,3.854,2.589,2.589,0,0,1-3.683-.3,2.8,2.8,0,0,1-.642-1.8A2.65,2.65,0,0,1,301.611,19.219Z" transform="translate(-111.331 -18.554)" fill="#00afe6"></path><path id="Path_3246" data-name="Path 3246" d="M310.836,24.486a6.95,6.95,0,0,1,1.157-2.826,5.551,5.551,0,0,1,.769-.985,6.189,6.189,0,0,1,5.225-2.1h1.626l-.6,3.855h-1.627a2.959,2.959,0,0,0-1.027.257,2.718,2.718,0,0,0-1.756,2.483l-.17,1.113h3.9l-.6,3.855h-3.938l-3.041,19.27H306.9Z" transform="translate(-111.905 -18.555)" fill="#00afe6"></path><path id="Path_3247" data-name="Path 3247" d="M335.9,18.577h15.716c3.6,0,6.037,2.783,5.352,7.152l-2.527,15.844a5.981,5.981,0,0,1-.3,1.243,8.838,8.838,0,0,1-3.512,4.967,9.283,9.283,0,0,1-4.753,1.627H331.023ZM346.4,44.956c1.97,0,3.212-1.157,3.64-3.725l2.313-14.689a3.422,3.422,0,0,0,.085-.642c.129-2.141-.471-2.869-2.7-2.869H339.673L336.2,44.956Z" transform="translate(-112.827 -18.555)" fill="#00afe6"></path><path id="Path_3248" data-name="Path 3248" d="M361.5,33.272c.728-4.454,3.341-6.681,8.222-6.681h5.739c3.725,0,5.738,2.185,5.139,5.91l-.428,2.741-16.23,7.023-.129.77v.258c-.042,2.1.386,2.57,2.184,2.57h12.761l-.641,3.853H365.189c-3.684,0-5.867-2.483-5.31-6.08Zm15.2-.471c0-.086.043-.214.043-.3.257-1.542-.258-2.055-2.056-2.055h-6.252c-1.841,0-2.74.857-3.082,2.912l-.728,4.667Z" transform="translate(-113.928 -18.861)" fill="#00afe6"></path><path id="Path_3249" data-name="Path 3249" d="M387.53,26.591l3.983,18.843,9.977-18.843h4.155l-11.263,21.2a3.706,3.706,0,0,1-2.27,2.184c-2.483.685-3.768-.172-4.2-2.184l-4.539-21.2Z" transform="translate(-114.829 -18.861)" fill="#00afe6"></path><path id="Path_3250" data-name="Path 3250" d="M407.354,33.272c.728-4.454,3.341-6.681,8.222-6.681h5.739c3.725,0,5.738,2.185,5.139,5.91l-.429,2.741-16.23,7.023-.129.77v.258c-.042,2.1.387,2.57,2.185,2.57h12.761l-.642,3.853H411.037c-3.683,0-5.866-2.483-5.309-6.08Zm15.2-.471c0-.086.043-.214.043-.3.256-1.542-.258-2.055-2.056-2.055h-6.252c-1.841,0-2.741.857-3.082,2.912l-.728,4.667Z" transform="translate(-115.681 -18.861)" fill="#00afe6"></path><path id="Path_3251" data-name="Path 3251" d="M432.027,32.544a4.914,4.914,0,0,1,.342-1.414c1.071-3.04,3.383-4.539,7.108-4.539h6.081c4.2,0,6.166,2.1,5.567,5.953l-2.74,17.171h-3.855l2.655-16.7.128-.942v-.128c-.042-.815-.813-1.414-2.355-1.414h-6.124c-2.013,0-2.741.642-3.04,2.483l-2.655,16.7h-3.854Z" transform="translate(-116.585 -18.861)" fill="#00afe6"></path><path id="Path_3252" data-name="Path 3252" d="M459.773,18.577h3.854l-1.2,7.708h3.982l-.642,3.855h-3.982l-3.041,19.27h-3.854Z" transform="translate(-117.564 -18.555)" fill="#00afe6"></path><path id="Path_3253" data-name="Path 3253" d="M467.914,33.272c.728-4.454,3.34-6.681,8.222-6.681h5.738c3.725,0,5.738,2.185,5.139,5.91l-.428,2.741-16.23,7.023-.129.77v.258c-.042,2.1.386,2.57,2.184,2.57h12.761l-.642,3.853H471.6c-3.683,0-5.867-2.483-5.31-6.08Zm15.2-.471c0-.086.043-.214.043-.3.257-1.542-.257-2.055-2.055-2.055h-6.252c-1.841,0-2.741.857-3.082,2.912l-.728,4.667Z" transform="translate(-117.997 -18.861)" fill="#00afe6"></path><path id="Path_3254" data-name="Path 3254" d="M492.545,32.715a11.918,11.918,0,0,1,.3-1.327c.814-3.04,2.184-4.283,5.353-4.711a8.2,8.2,0,0,1,1.027-.087h2.183l-.642,3.9h-1.884a2.385,2.385,0,0,0-1.412.429A2.2,2.2,0,0,0,496.4,32.8l-2.7,16.914h-3.854Z" transform="translate(-118.901 -18.861)" fill="#00afe6"></path></g></g></svg> 